<svg xmlns="http://www.w3.org/2000/svg" viewBox="0 0 1 1">
  <!-- Use the path strings below in Plotly layout.shapes with xref/yref='x','y' -->
  <path id="pc_ellipse_95" d="M 1.0921e-14 4.15627 L 0.134983 4.15057 L 0.269595 4.1335 L 0.403469 4.1051 L 0.536237 4.06544 L 0.667535 4.01465 L 0.797004 3.95284 L 0.924288 3.88021 L 1.04904 3.79694 L 1.17091 3.70326 L 1.28958 3.59943 L 1.40471 3.48574 L 1.51599 3.36249 L 1.62312 3.23003 L 1.72579 3.08871 L 1.82374 2.93892 L 1.91669 2.78109 L 2.00438 2.61562 L 2.08658 2.44299 L 2.16306 2.26366 L 2.23362 2.07813 L 2.29805 1.88691 L 2.35618 1.69051 L 2.40785 1.48947 L 2.45292 1.28436 L 2.49128 1.07572 L 2.5228 0.864136 L 2.5474 0.650183 L 2.56503 0.434448 L 2.57562 0.217522 L 2.57916 -6.86775e-15 L 2.57562 -0.217522 L 2.56503 -0.434448 L 2.5474 -0.650183 L 2.5228 -0.864136 L 2.49128 -1.07572 L 2.45292 -1.28436 L 2.40785 -1.48947 L 2.35618 -1.69051 L 2.29805 -1.88691 L 2.23362 -2.07813 L 2.16306 -2.26366 L 2.08658 -2.44299 L 2.00438 -2.61562 L 1.91669 -2.78109 L 1.82374 -2.93892 L 1.72579 -3.08871 L 1.62312 -3.23003 L 1.51599 -3.36249 L 1.40471 -3.48574 L 1.28958 -3.59943 L 1.17091 -3.70326 L 1.04904 -3.79694 L 0.924288 -3.88021 L 0.797004 -3.95284 L 0.667535 -4.01465 L 0.536237 -4.06544 L 0.403469 -4.1051 L 0.269595 -4.1335 L 0.134983 -4.15057 L 1.23823e-14 -4.15627 L -0.134983 -4.15057 L -0.269595 -4.1335 L -0.403469 -4.1051 L -0.536237 -4.06544 L -0.667535 -4.01465 L -0.797004 -3.95284 L -0.924288 -3.88021 L -1.04904 -3.79694 L -1.17091 -3.70326 L -1.28958 -3.59943 L -1.40471 -3.48574 L -1.51599 -3.36249 L -1.62312 -3.23003 L -1.72579 -3.08871 L -1.82374 -2.93892 L -1.91669 -2.78109 L -2.00438 -2.61562 L -2.08658 -2.44299 L -2.16306 -2.26366 L -2.23362 -2.07813 L -2.29805 -1.88691 L -2.35618 -1.69051 L -2.40785 -1.48947 L -2.45292 -1.28436 L -2.49128 -1.07572 L -2.5228 -0.864136 L -2.5474 -0.650183 L -2.56503 -0.434448 L -2.57562 -0.217522 L -2.57916 -8.80859e-15 L -2.57562 0.217522 L -2.56503 0.434448 L -2.5474 0.650183 L -2.5228 0.864136 L -2.49128 1.07572 L -2.45292 1.28436 L -2.40785 1.48947 L -2.35618 1.69051 L -2.29805 1.88691 L -2.23362 2.07813 L -2.16306 2.26366 L -2.08658 2.44299 L -2.00438 2.61562 L -1.91669 2.78109 L -1.82374 2.93892 L -1.72579 3.08871 L -1.62312 3.23003 L -1.51599 3.36249 L -1.40471 3.48574 L -1.28958 3.59943 L -1.17091 3.70326 L -1.04904 3.79694 L -0.924288 3.88021 L -0.797004 3.95284 L -0.667535 4.01465 L -0.536237 4.06544 L -0.403469 4.1051 L -0.269595 4.1335 L -0.134983 4.15057 L 7.9986e-15 4.15627 Z" fill="none" stroke="#4ECDC4" stroke-width="1"/>
  <path id="pc_ellipse_99" d="M 1.0921e-14 5.15317 L 0.167359 5.14611 L 0.33426 5.12494 L 0.500244 5.08973 L 0.664857 5.04056 L 0.827648 4.97758 L 0.98817 4.90096 L 1.14598 4.8109 L 1.30066 4.70766 L 1.45176 4.59151 L 1.59889 4.46278 L 1.74164 4.32181 L 1.87961 4.169 L 2.01243 4.00477 L 2.13974 3.82955 L 2.26118 3.64384 L 2.37642 3.44815 L 2.48515 3.243 L 2.58706 3.02896 L 2.68189 2.80662 L 2.76936 2.57659 L 2.84925 2.33949 L 2.92132 2.09598 L 2.98539 1.84673 L 3.04127 1.59242 L 3.08882 1.33374 L 3.12791 1.0714 L 3.15842 0.806134 L 3.18027 0.538653 L 3.1934 0.269696 L 3.19779 -6.58536e-15 L 3.1934 -0.269696 L 3.18027 -0.538653 L 3.15842 -0.806134 L 3.12791 -1.0714 L 3.08882 -1.33374 L 3.04127 -1.59242 L 2.98539 -1.84673 L 2.92132 -2.09598 L 2.84925 -2.33949 L 2.76936 -2.57659 L 2.68189 -2.80662 L 2.58706 -3.02896 L 2.48515 -3.243 L 2.37642 -3.44815 L 2.26118 -3.64384 L 2.13974 -3.82955 L 2.01243 -4.00477 L 1.87961 -4.169 L 1.74164 -4.32181 L 1.59889 -4.46278 L 1.45176 -4.59151 L 1.30066 -4.70766 L 1.14598 -4.8109 L 0.98817 -4.90096 L 0.827648 -4.97758 L 0.664857 -5.04056 L 0.500244 -5.08973 L 0.33426 -5.12494 L 0.167359 -5.14611 L 1.27327e-14 -5.15317 L -0.167359 -5.14611 L -0.33426 -5.12494 L -0.500244 -5.08973 L -0.664857 -5.04056 L -0.827648 -4.97758 L -0.98817 -4.90096 L -1.14598 -4.8109 L -1.30066 -4.70766 L -1.45176 -4.59151 L -1.59889 -4.46278 L -1.74164 -4.32181 L -1.87961 -4.169 L -2.01243 -4.00477 L -2.13974 -3.82955 L -2.26118 -3.64384 L -2.37642 -3.44815 L -2.48515 -3.243 L -2.58706 -3.02896 L -2.68189 -2.80662 L -2.76936 -2.57659 L -2.84925 -2.33949 L -2.92132 -2.09598 L -2.98539 -1.84673 L -3.04127 -1.59242 L -3.08882 -1.33374 L -3.12791 -1.0714 L -3.15842 -0.806134 L -3.18027 -0.538653 L -3.1934 -0.269696 L -3.19779 -8.99171e-15 L -3.1934 0.269696 L -3.18027 0.538653 L -3.15842 0.806134 L -3.12791 1.0714 L -3.08882 1.33374 L -3.04127 1.59242 L -2.98539 1.84673 L -2.92132 2.09598 L -2.84925 2.33949 L -2.76936 2.57659 L -2.68189 2.80662 L -2.58706 3.02896 L -2.48515 3.243 L -2.37642 3.44815 L -2.26118 3.64384 L -2.13974 3.82955 L -2.01243 4.00477 L -1.87961 4.169 L -1.74164 4.32181 L -1.59889 4.46278 L -1.45176 4.59151 L -1.30066 4.70766 L -1.14598 4.8109 L -0.98817 4.90096 L -0.827648 4.97758 L -0.664857 5.04056 L -0.500244 5.08973 L -0.33426 5.12494 L -0.167359 5.14611 L 7.29763e-15 5.15317 Z" fill="none" stroke="#FF6B6B" stroke-width="1"/>
</svg>
