<svg xmlns="http://www.w3.org/2000/svg" viewBox="0 0 1 1">
  <!-- Use the path strings below in Plotly layout.shapes with xref/yref='x','y' -->
  <path id="pc_ellipse_95" d="M 3.10862e-16 7.52827 L 0.0343203 7.51795 L 0.0685464 7.48703 L 0.102585 7.43558 L 0.136342 7.36376 L 0.169725 7.27175 L 0.202644 7.15981 L 0.235006 7.02824 L 0.266725 6.87741 L 0.297713 6.70773 L 0.327884 6.51967 L 0.357157 6.31374 L 0.385451 6.0905 L 0.412688 5.85056 L 0.438795 5.59459 L 0.463698 5.32329 L 0.487331 5.03739 L 0.509628 4.73769 L 0.530528 4.425 L 0.549973 4.10019 L 0.567912 3.76413 L 0.584294 3.41776 L 0.599074 3.06202 L 0.612212 2.69789 L 0.623673 2.32636 L 0.633423 1.94846 L 0.641438 1.56521 L 0.647695 1.17768 L 0.652176 0.786918 L 0.65487 0.393999 L 0.655768 2.32704e-15 L 0.65487 -0.393999 L 0.652176 -0.786918 L 0.647695 -1.17768 L 0.641438 -1.56521 L 0.633423 -1.94846 L 0.623673 -2.32636 L 0.612212 -2.69789 L 0.599074 -3.06202 L 0.584294 -3.41776 L 0.567912 -3.76413 L 0.549973 -4.10019 L 0.530528 -4.425 L 0.509628 -4.73769 L 0.487331 -5.03739 L 0.463698 -5.32329 L 0.438795 -5.59459 L 0.412688 -5.85056 L 0.385451 -6.0905 L 0.357157 -6.31374 L 0.327884 -6.51967 L 0.297713 -6.70773 L 0.266725 -6.87741 L 0.235006 -7.02824 L 0.202644 -7.15981 L 0.169725 -7.27175 L 0.136342 -7.36376 L 0.102585 -7.43558 L 0.0685464 -7.48703 L 0.0343203 -7.51795 L 6.82388e-16 -7.52827 L -0.0343203 -7.51795 L -0.0685464 -7.48703 L -0.102585 -7.43558 L -0.136342 -7.36376 L -0.169725 -7.27175 L -0.202644 -7.15981 L -0.235006 -7.02824 L -0.266725 -6.87741 L -0.297713 -6.70773 L -0.327884 -6.51967 L -0.357157 -6.31374 L -0.385451 -6.0905 L -0.412688 -5.85056 L -0.438795 -5.59459 L -0.463698 -5.32329 L -0.487331 -5.03739 L -0.509628 -4.73769 L -0.530528 -4.425 L -0.549973 -4.10019 L -0.567912 -3.76413 L -0.584294 -3.41776 L -0.599074 -3.06202 L -0.612212 -2.69789 L -0.623673 -2.32636 L -0.633423 -1.94846 L -0.641438 -1.56521 L -0.647695 -1.17768 L -0.652176 -0.786918 L -0.65487 -0.393999 L -0.655768 -1.1884e-15 L -0.65487 0.393999 L -0.652176 0.786918 L -0.647695 1.17768 L -0.641438 1.56521 L -0.633423 1.94846 L -0.623673 2.32636 L -0.612212 2.69789 L -0.599074 3.06202 L -0.584294 3.41776 L -0.567912 3.76413 L -0.549973 4.10019 L -0.530528 4.425 L -0.509628 4.73769 L -0.487331 5.03739 L -0.463698 5.32329 L -0.438795 5.59459 L -0.412688 5.85056 L -0.385451 6.0905 L -0.357157 6.31374 L -0.327884 6.51967 L -0.297713 6.70773 L -0.266725 6.87741 L -0.235006 7.02824 L -0.202644 7.15981 L -0.169725 7.27175 L -0.136342 7.36376 L -0.102585 7.43558 L -0.0685464 7.48703 L -0.0343203 7.51795 L -4.32188e-16 7.52827 Z" fill="none" stroke="#4ECDC4" stroke-width="1"/>
  <path id="pc_ellipse_99" d="M 3.10862e-16 9.33397 L 0.0425522 9.32118 L 0.0849877 9.28284 L 0.12719 9.21905 L 0.169044 9.13 L 0.210435 9.01592 L 0.251249 8.87713 L 0.291374 8.71401 L 0.330701 8.527 L 0.369121 8.31663 L 0.406529 8.08345 L 0.442823 7.82812 L 0.477904 7.55134 L 0.511674 7.25386 L 0.544042 6.93649 L 0.574919 6.60011 L 0.60422 6.24564 L 0.631865 5.87406 L 0.657778 5.48637 L 0.681888 5.08364 L 0.704129 4.66698 L 0.72444 4.23753 L 0.742766 3.79647 L 0.759055 3.34499 L 0.773264 2.88435 L 0.785354 2.41581 L 0.795291 1.94064 L 0.803048 1.46015 L 0.808604 0.975665 L 0.811944 0.488502 L 0.813058 2.83855e-15 L 0.811944 -0.488502 L 0.808604 -0.975665 L 0.803048 -1.46015 L 0.795291 -1.94064 L 0.785354 -2.41581 L 0.773264 -2.88435 L 0.759055 -3.34499 L 0.742766 -3.79647 L 0.72444 -4.23753 L 0.704129 -4.66698 L 0.681888 -5.08364 L 0.657778 -5.48637 L 0.631865 -5.87406 L 0.60422 -6.24564 L 0.574919 -6.60011 L 0.544042 -6.93649 L 0.511674 -7.25386 L 0.477904 -7.55134 L 0.442823 -7.82812 L 0.406529 -8.08345 L 0.369121 -8.31663 L 0.330701 -8.527 L 0.291374 -8.71401 L 0.251249 -8.87713 L 0.210435 -9.01592 L 0.169044 -9.13 L 0.12719 -9.21905 L 0.0849877 -9.28284 L 0.0425522 -9.32118 L 7.71501e-16 -9.33397 L -0.0425522 -9.32118 L -0.0849877 -9.28284 L -0.12719 -9.21905 L -0.169044 -9.13 L -0.210435 -9.01592 L -0.251249 -8.87713 L -0.291374 -8.71401 L -0.330701 -8.527 L -0.369121 -8.31663 L -0.406529 -8.08345 L -0.442823 -7.82812 L -0.477904 -7.55134 L -0.511674 -7.25386 L -0.544042 -6.93649 L -0.574919 -6.60011 L -0.60422 -6.24564 L -0.631865 -5.87406 L -0.657778 -5.48637 L -0.681888 -5.08364 L -0.704129 -4.66698 L -0.72444 -4.23753 L -0.742766 -3.79647 L -0.759055 -3.34499 L -0.773264 -2.88435 L -0.785354 -2.41581 L -0.795291 -1.94064 L -0.803048 -1.46015 L -0.808604 -0.975665 L -0.811944 -0.488502 L -0.813058 -1.52009e-15 L -0.811944 0.488502 L -0.808604 0.975665 L -0.803048 1.46015 L -0.795291 1.94064 L -0.785354 2.41581 L -0.773264 2.88435 L -0.759055 3.34499 L -0.742766 3.79647 L -0.72444 4.23753 L -0.704129 4.66698 L -0.681888 5.08364 L -0.657778 5.48637 L -0.631865 5.87406 L -0.60422 6.24564 L -0.574919 6.60011 L -0.544042 6.93649 L -0.511674 7.25386 L -0.477904 7.55134 L -0.442823 7.82812 L -0.406529 8.08345 L -0.369121 8.31663 L -0.330701 8.527 L -0.291374 8.71401 L -0.251249 8.87713 L -0.210435 9.01592 L -0.169044 9.13 L -0.12719 9.21905 L -0.0849877 9.28284 L -0.0425522 9.32118 L -6.10414e-16 9.33397 Z" fill="none" stroke="#FF6B6B" stroke-width="1"/>
</svg>
