<?xml version="1.0" encoding="UTF-8"?>
<svg xmlns="http://www.w3.org/2000/svg" width="500" height="300" viewBox="0 0 500 300">
  <rect width="500" height="300" fill="#fafafa"/>
  <text x="15" y="150" text-anchor="middle" font-family="Arial, sans-serif" font-size="12" fill="#666" transform="rotate(-90 15 150)">Variance (%)</text>
  <text x="250" y="290" text-anchor="middle" font-family="Arial, sans-serif" font-size="12" fill="#666">Principal Component</text>
  <line x1="60" y1="40" x2="60" y2="240" stroke="#666" stroke-width="2"/>
  <line x1="60" y1="240" x2="480" y2="240" stroke="#666" stroke-width="2"/>
  <line x1="55" y1="240" x2="60" y2="240" stroke="#666" stroke-width="1"/>
  <text x="50" y="244" text-anchor="end" font-family="Arial, sans-serif" font-size="10" fill="#666">0.0</text>
  <line x1="60" y1="240" x2="480" y2="240" stroke="#e0e0e0" stroke-width="1" stroke-dasharray="2,2"/>
  <line x1="55" y1="200" x2="60" y2="200" stroke="#666" stroke-width="1"/>
  <text x="50" y="204" text-anchor="end" font-family="Arial, sans-serif" font-size="10" fill="#666">18.9</text>
  <line x1="60" y1="200" x2="480" y2="200" stroke="#e0e0e0" stroke-width="1" stroke-dasharray="2,2"/>
  <line x1="55" y1="160" x2="60" y2="160" stroke="#666" stroke-width="1"/>
  <text x="50" y="164" text-anchor="end" font-family="Arial, sans-serif" font-size="10" fill="#666">37.8</text>
  <line x1="60" y1="160" x2="480" y2="160" stroke="#e0e0e0" stroke-width="1" stroke-dasharray="2,2"/>
  <line x1="55" y1="120" x2="60" y2="120" stroke="#666" stroke-width="1"/>
  <text x="50" y="124" text-anchor="end" font-family="Arial, sans-serif" font-size="10" fill="#666">56.8</text>
  <line x1="60" y1="120" x2="480" y2="120" stroke="#e0e0e0" stroke-width="1" stroke-dasharray="2,2"/>
  <line x1="55" y1="80" x2="60" y2="80" stroke="#666" stroke-width="1"/>
  <text x="50" y="84" text-anchor="end" font-family="Arial, sans-serif" font-size="10" fill="#666">75.7</text>
  <line x1="60" y1="80" x2="480" y2="80" stroke="#e0e0e0" stroke-width="1" stroke-dasharray="2,2"/>
  <line x1="55" y1="40" x2="60" y2="40" stroke="#666" stroke-width="1"/>
  <text x="50" y="44" text-anchor="end" font-family="Arial, sans-serif" font-size="10" fill="#666">94.6</text>
  <line x1="60" y1="40" x2="480" y2="40" stroke="#e0e0e0" stroke-width="1" stroke-dasharray="2,2"/>
  <rect x="68" y="40" width="25" height="200" fill="#4ECDC4" stroke="#333" stroke-width="1"/>
  <text x="81" y="260" text-anchor="middle" font-family="Arial, sans-serif" font-size="10" fill="#666">PC1</text>
  <text x="81" y="35" text-anchor="middle" font-family="Arial, sans-serif" font-size="9" fill="#333">94.6%</text>
  <circle cx="81" cy="140" r="4" fill="#FF6B6B" stroke="#fff" stroke-width="2"/>
  <rect x="110" y="239" width="25" height="1" fill="#4ECDC4" stroke="#333" stroke-width="1"/>
  <text x="123" y="260" text-anchor="middle" font-family="Arial, sans-serif" font-size="10" fill="#666">PC2</text>
  <text x="123" y="234" text-anchor="middle" font-family="Arial, sans-serif" font-size="9" fill="#333">0.7%</text>
  <circle cx="123" cy="239" r="4" fill="#FF6B6B" stroke="#fff" stroke-width="2"/>
  <rect x="152" y="239" width="25" height="1" fill="#999" stroke="#333" stroke-width="1"/>
  <text x="165" y="260" text-anchor="middle" font-family="Arial, sans-serif" font-size="10" fill="#666">PC3</text>
  <text x="165" y="234" text-anchor="middle" font-family="Arial, sans-serif" font-size="9" fill="#333">0.7%</text>
  <circle cx="165" cy="239" r="4" fill="#FF6B6B" stroke="#fff" stroke-width="2"/>
  <rect x="194" y="239" width="25" height="1" fill="#999" stroke="#333" stroke-width="1"/>
  <text x="207" y="260" text-anchor="middle" font-family="Arial, sans-serif" font-size="10" fill="#666">PC4</text>
  <text x="207" y="234" text-anchor="middle" font-family="Arial, sans-serif" font-size="9" fill="#333">0.6%</text>
  <circle cx="207" cy="239" r="4" fill="#FF6B6B" stroke="#fff" stroke-width="2"/>
  <rect x="236" y="239" width="25" height="1" fill="#999" stroke="#333" stroke-width="1"/>
  <text x="249" y="260" text-anchor="middle" font-family="Arial, sans-serif" font-size="10" fill="#666">PC5</text>
  <text x="249" y="234" text-anchor="middle" font-family="Arial, sans-serif" font-size="9" fill="#333">0.6%</text>
  <circle cx="249" cy="239" r="4" fill="#FF6B6B" stroke="#fff" stroke-width="2"/>
  <rect x="278" y="239" width="25" height="1" fill="#999" stroke="#333" stroke-width="1"/>
  <text x="291" y="260" text-anchor="middle" font-family="Arial, sans-serif" font-size="10" fill="#666">PC6</text>
  <text x="291" y="234" text-anchor="middle" font-family="Arial, sans-serif" font-size="9" fill="#333">0.6%</text>
  <circle cx="291" cy="239" r="4" fill="#FF6B6B" stroke="#fff" stroke-width="2"/>
  <rect x="320" y="239" width="25" height="1" fill="#999" stroke="#333" stroke-width="1"/>
  <text x="333" y="260" text-anchor="middle" font-family="Arial, sans-serif" font-size="10" fill="#666">PC7</text>
  <text x="333" y="234" text-anchor="middle" font-family="Arial, sans-serif" font-size="9" fill="#333">0.6%</text>
  <circle cx="333" cy="239" r="4" fill="#FF6B6B" stroke="#fff" stroke-width="2"/>
  <rect x="362" y="239" width="25" height="1" fill="#999" stroke="#333" stroke-width="1"/>
  <text x="375" y="260" text-anchor="middle" font-family="Arial, sans-serif" font-size="10" fill="#666">PC8</text>
  <text x="375" y="234" text-anchor="middle" font-family="Arial, sans-serif" font-size="9" fill="#333">0.5%</text>
  <circle cx="375" cy="239" r="4" fill="#FF6B6B" stroke="#fff" stroke-width="2"/>
  <rect x="404" y="239" width="25" height="1" fill="#999" stroke="#333" stroke-width="1"/>
  <text x="417" y="260" text-anchor="middle" font-family="Arial, sans-serif" font-size="10" fill="#666">PC9</text>
  <text x="417" y="234" text-anchor="middle" font-family="Arial, sans-serif" font-size="9" fill="#333">0.5%</text>
  <circle cx="417" cy="239" r="4" fill="#FF6B6B" stroke="#fff" stroke-width="2"/>
  <rect x="446" y="239" width="25" height="1" fill="#999" stroke="#333" stroke-width="1"/>
  <text x="459" y="260" text-anchor="middle" font-family="Arial, sans-serif" font-size="10" fill="#666">PC10</text>
  <text x="459" y="234" text-anchor="middle" font-family="Arial, sans-serif" font-size="9" fill="#333">0.5%</text>
  <circle cx="459" cy="239" r="4" fill="#FF6B6B" stroke="#fff" stroke-width="2"/>
  <path d="M 81 140 L 123 239 L 165 239 L 207 239 L 249 239 L 291 239 L 333 239 L 375 239 L 417 239 L 459 239" fill="none" stroke="#FF6B6B" stroke-width="2"/>
</svg>
