<svg xmlns="http://www.w3.org/2000/svg" viewBox="0 0 1 1">
  <!-- Use the path strings below in Plotly layout.shapes with xref/yref='x','y' -->
  <path id="pc_ellipse_95" d="M 1.41416e-14 7.65115 L 0.0395378 7.64067 L 0.0789672 7.60924 L 0.11818 7.55695 L 0.157069 7.48396 L 0.195528 7.39044 L 0.23345 7.27668 L 0.270733 7.14297 L 0.307274 6.98967 L 0.342972 6.81723 L 0.377731 6.62609 L 0.411454 6.4168 L 0.444049 6.18991 L 0.475427 5.94606 L 0.505502 5.68591 L 0.534192 5.41018 L 0.561417 5.11962 L 0.587104 4.81503 L 0.611181 4.49723 L 0.633583 4.16712 L 0.654249 3.82558 L 0.673121 3.47355 L 0.690148 3.112 L 0.705284 2.74193 L 0.718487 2.36434 L 0.72972 1.98026 L 0.738953 1.59076 L 0.746161 1.1969 L 0.751323 0.799763 L 0.754426 0.40043 L 0.755462 1.07241e-14 L 0.754426 -0.40043 L 0.751323 -0.799763 L 0.746161 -1.1969 L 0.738953 -1.59076 L 0.72972 -1.98026 L 0.718487 -2.36434 L 0.705284 -2.74193 L 0.690148 -3.112 L 0.673121 -3.47355 L 0.654249 -3.82558 L 0.633583 -4.16712 L 0.611181 -4.49723 L 0.587104 -4.81503 L 0.561417 -5.11962 L 0.534192 -5.41018 L 0.505502 -5.68591 L 0.475427 -5.94606 L 0.444049 -6.18991 L 0.411454 -6.4168 L 0.377731 -6.62609 L 0.342972 -6.81723 L 0.307274 -6.98967 L 0.270733 -7.14297 L 0.23345 -7.27668 L 0.195528 -7.39044 L 0.157069 -7.48396 L 0.11818 -7.55695 L 0.0789672 -7.60924 L 0.0395378 -7.64067 L 1.45696e-14 -7.65115 L -0.0395378 -7.64067 L -0.0789672 -7.60924 L -0.11818 -7.55695 L -0.157069 -7.48396 L -0.195528 -7.39044 L -0.23345 -7.27668 L -0.270733 -7.14297 L -0.307274 -6.98967 L -0.342972 -6.81723 L -0.377731 -6.62609 L -0.411454 -6.4168 L -0.444049 -6.18991 L -0.475427 -5.94606 L -0.505502 -5.68591 L -0.534192 -5.41018 L -0.561417 -5.11962 L -0.587104 -4.81503 L -0.611181 -4.49723 L -0.633583 -4.16712 L -0.654249 -3.82558 L -0.673121 -3.47355 L -0.690148 -3.112 L -0.705284 -2.74193 L -0.718487 -2.36434 L -0.72972 -1.98026 L -0.738953 -1.59076 L -0.746161 -1.1969 L -0.751323 -0.799763 L -0.754426 -0.40043 L -0.755462 7.15126e-15 L -0.754426 0.40043 L -0.751323 0.799763 L -0.746161 1.1969 L -0.738953 1.59076 L -0.72972 1.98026 L -0.718487 2.36434 L -0.705284 2.74193 L -0.690148 3.112 L -0.673121 3.47355 L -0.654249 3.82558 L -0.633583 4.16712 L -0.611181 4.49723 L -0.587104 4.81503 L -0.561417 5.11962 L -0.534192 5.41018 L -0.505502 5.68591 L -0.475427 5.94606 L -0.444049 6.18991 L -0.411454 6.4168 L -0.377731 6.62609 L -0.342972 6.81723 L -0.307274 6.98967 L -0.270733 7.14297 L -0.23345 7.27668 L -0.195528 7.39044 L -0.157069 7.48396 L -0.11818 7.55695 L -0.0789672 7.60924 L -0.0395378 7.64067 L 1.32856e-14 7.65115 Z" fill="none" stroke="#4ECDC4" stroke-width="1"/>
  <path id="pc_ellipse_99" d="M 1.41416e-14 9.48633 L 0.0490212 9.47333 L 0.097908 9.43436 L 0.146526 9.36954 L 0.194743 9.27903 L 0.242426 9.16309 L 0.289445 9.02203 L 0.33567 8.85625 L 0.380975 8.66619 L 0.425236 8.45238 L 0.468332 8.2154 L 0.510144 7.9559 L 0.550557 7.6746 L 0.589462 7.37226 L 0.62675 7.04972 L 0.662321 6.70785 L 0.696077 6.34759 L 0.727924 5.96994 L 0.757777 5.57592 L 0.785552 5.16662 L 0.811175 4.74316 L 0.834573 4.3067 L 0.855685 3.85844 L 0.874451 3.3996 L 0.89082 2.93144 L 0.904748 2.45524 L 0.916195 1.97232 L 0.925132 1.48399 L 0.931533 0.991591 L 0.93538 0.496476 L 0.936664 1.12439e-14 L 0.93538 -0.496476 L 0.931533 -0.991591 L 0.925132 -1.48399 L 0.916195 -1.97232 L 0.904748 -2.45524 L 0.89082 -2.93144 L 0.874451 -3.3996 L 0.855685 -3.85844 L 0.834573 -4.3067 L 0.811175 -4.74316 L 0.785552 -5.16662 L 0.757777 -5.57592 L 0.727924 -5.96994 L 0.696077 -6.34759 L 0.662321 -6.70785 L 0.62675 -7.04972 L 0.589462 -7.37226 L 0.550557 -7.6746 L 0.510144 -7.9559 L 0.468332 -8.2154 L 0.425236 -8.45238 L 0.380975 -8.66619 L 0.33567 -8.85625 L 0.289445 -9.02203 L 0.242426 -9.16309 L 0.194743 -9.27903 L 0.146526 -9.36954 L 0.097908 -9.43436 L 0.0490212 -9.47333 L 1.46722e-14 -9.48633 L -0.0490212 -9.47333 L -0.097908 -9.43436 L -0.146526 -9.36954 L -0.194743 -9.27903 L -0.242426 -9.16309 L -0.289445 -9.02203 L -0.33567 -8.85625 L -0.380975 -8.66619 L -0.425236 -8.45238 L -0.468332 -8.2154 L -0.510144 -7.9559 L -0.550557 -7.6746 L -0.589462 -7.37226 L -0.62675 -7.04972 L -0.662321 -6.70785 L -0.696077 -6.34759 L -0.727924 -5.96994 L -0.757777 -5.57592 L -0.785552 -5.16662 L -0.811175 -4.74316 L -0.834573 -4.3067 L -0.855685 -3.85844 L -0.874451 -3.3996 L -0.89082 -2.93144 L -0.904748 -2.45524 L -0.916195 -1.97232 L -0.925132 -1.48399 L -0.931533 -0.991591 L -0.93538 -0.496476 L -0.936664 6.81416e-15 L -0.93538 0.496476 L -0.931533 0.991591 L -0.925132 1.48399 L -0.916195 1.97232 L -0.904748 2.45524 L -0.89082 2.93144 L -0.874451 3.3996 L -0.855685 3.85844 L -0.834573 4.3067 L -0.811175 4.74316 L -0.785552 5.16662 L -0.757777 5.57592 L -0.727924 5.96994 L -0.696077 6.34759 L -0.662321 6.70785 L -0.62675 7.04972 L -0.589462 7.37226 L -0.550557 7.6746 L -0.510144 7.9559 L -0.468332 8.2154 L -0.425236 8.45238 L -0.380975 8.66619 L -0.33567 8.85625 L -0.289445 9.02203 L -0.242426 9.16309 L -0.194743 9.27903 L -0.146526 9.36954 L -0.097908 9.43436 L -0.0490212 9.47333 L 1.30802e-14 9.48633 Z" fill="none" stroke="#FF6B6B" stroke-width="1"/>
</svg>
