<svg xmlns="http://www.w3.org/2000/svg" viewBox="0 0 1 1">
  <!-- Use the path strings below in Plotly layout.shapes with xref/yref='x','y' -->
  <path id="pc_ellipse_95" d="M -9.4668e-15 3.48203 L 0.1443 3.47726 L 0.288205 3.46296 L 0.43132 3.43916 L 0.573253 3.40594 L 0.713615 3.36339 L 0.85202 3.31161 L 0.98809 3.25076 L 1.12145 3.181 L 1.25174 3.10251 L 1.3786 3.01553 L 1.50168 2.92028 L 1.62064 2.81702 L 1.73516 2.70605 L 1.84492 2.58766 L 1.94963 2.46217 L 2.049 2.32994 L 2.14274 2.19131 L 2.23062 2.04669 L 2.31238 1.89645 L 2.3878 1.74102 L 2.45668 1.58081 L 2.51882 1.41627 L 2.57406 1.24785 L 2.62225 1.07601 L 2.66325 0.901217 L 2.69694 0.723956 L 2.72325 0.54471 L 2.74209 0.363972 L 2.75342 0.182236 L 2.75719 7.38867e-16 L 2.75342 -0.182236 L 2.74209 -0.363972 L 2.72325 -0.54471 L 2.69694 -0.723956 L 2.66325 -0.901217 L 2.62225 -1.07601 L 2.57406 -1.24785 L 2.51882 -1.41627 L 2.45668 -1.58081 L 2.3878 -1.74102 L 2.31238 -1.89645 L 2.23062 -2.04669 L 2.14274 -2.19131 L 2.049 -2.32994 L 1.94963 -2.46217 L 1.84492 -2.58766 L 1.73516 -2.70605 L 1.62064 -2.81702 L 1.50168 -2.92028 L 1.3786 -3.01553 L 1.25174 -3.10251 L 1.12145 -3.181 L 0.98809 -3.25076 L 0.85202 -3.31161 L 0.713615 -3.36339 L 0.573253 -3.40594 L 0.43132 -3.43916 L 0.288205 -3.46296 L 0.1443 -3.47726 L -7.90471e-15 -3.48203 L -0.1443 -3.47726 L -0.288205 -3.46296 L -0.43132 -3.43916 L -0.573253 -3.40594 L -0.713615 -3.36339 L -0.85202 -3.31161 L -0.98809 -3.25076 L -1.12145 -3.181 L -1.25174 -3.10251 L -1.3786 -3.01553 L -1.50168 -2.92028 L -1.62064 -2.81702 L -1.73516 -2.70605 L -1.84492 -2.58766 L -1.94963 -2.46217 L -2.049 -2.32994 L -2.14274 -2.19131 L -2.23062 -2.04669 L -2.31238 -1.89645 L -2.3878 -1.74102 L -2.45668 -1.58081 L -2.51882 -1.41627 L -2.57406 -1.24785 L -2.62225 -1.07601 L -2.66325 -0.901217 L -2.69694 -0.723956 L -2.72325 -0.54471 L -2.74209 -0.363972 L -2.75342 -0.182236 L -2.75719 -8.87124e-16 L -2.75342 0.182236 L -2.74209 0.363972 L -2.72325 0.54471 L -2.69694 0.723956 L -2.66325 0.901217 L -2.62225 1.07601 L -2.57406 1.24785 L -2.51882 1.41627 L -2.45668 1.58081 L -2.3878 1.74102 L -2.31238 1.89645 L -2.23062 2.04669 L -2.14274 2.19131 L -2.049 2.32994 L -1.94963 2.46217 L -1.84492 2.58766 L -1.73516 2.70605 L -1.62064 2.81702 L -1.50168 2.92028 L -1.3786 3.01553 L -1.25174 3.10251 L -1.12145 3.181 L -0.98809 3.25076 L -0.85202 3.31161 L -0.713615 3.36339 L -0.573253 3.40594 L -0.43132 3.43916 L -0.288205 3.46296 L -0.1443 3.47726 L -1.2591e-14 3.48203 Z" fill="none" stroke="#4ECDC4" stroke-width="1"/>
  <path id="pc_ellipse_99" d="M -9.4668e-15 4.31722 L 0.178912 4.3113 L 0.357333 4.29357 L 0.534775 4.26407 L 0.710751 4.22288 L 0.884779 4.17012 L 1.05638 4.10592 L 1.22509 4.03047 L 1.39044 3.94398 L 1.55198 3.84667 L 1.70926 3.73882 L 1.86186 3.62073 L 2.00936 3.49271 L 2.15135 3.35511 L 2.28744 3.20832 L 2.41726 3.05274 L 2.54046 2.88878 L 2.65669 2.71692 L 2.76565 2.5376 L 2.86702 2.35133 L 2.96053 2.15861 L 3.04593 1.95998 L 3.12298 1.75597 L 3.19147 1.54715 L 3.25121 1.33409 L 3.30204 1.11738 L 3.34382 0.897601 L 3.37644 0.675362 L 3.3998 0.451273 L 3.41384 0.225946 L 3.41853 9.75455e-16 L 3.41384 -0.225946 L 3.3998 -0.451273 L 3.37644 -0.675362 L 3.34382 -0.897601 L 3.30204 -1.11738 L 3.25121 -1.33409 L 3.19147 -1.54715 L 3.12298 -1.75597 L 3.04593 -1.95998 L 2.96053 -2.15861 L 2.86702 -2.35133 L 2.76565 -2.5376 L 2.65669 -2.71692 L 2.54046 -2.88878 L 2.41726 -3.05274 L 2.28744 -3.20832 L 2.15135 -3.35511 L 2.00936 -3.49271 L 1.86186 -3.62073 L 1.70926 -3.73882 L 1.55198 -3.84667 L 1.39044 -3.94398 L 1.22509 -4.03047 L 1.05638 -4.10592 L 0.884779 -4.17012 L 0.710751 -4.22288 L 0.534775 -4.26407 L 0.357333 -4.29357 L 0.178912 -4.3113 L -7.53003e-15 -4.31722 L -0.178912 -4.3113 L -0.357333 -4.29357 L -0.534775 -4.26407 L -0.710751 -4.22288 L -0.884779 -4.17012 L -1.05638 -4.10592 L -1.22509 -4.03047 L -1.39044 -3.94398 L -1.55198 -3.84667 L -1.70926 -3.73882 L -1.86186 -3.62073 L -2.00936 -3.49271 L -2.15135 -3.35511 L -2.28744 -3.20832 L -2.41726 -3.05274 L -2.54046 -2.88878 L -2.65669 -2.71692 L -2.76565 -2.5376 L -2.86702 -2.35133 L -2.96053 -2.15861 L -3.04593 -1.95998 L -3.12298 -1.75597 L -3.19147 -1.54715 L -3.25121 -1.33409 L -3.30204 -1.11738 L -3.34382 -0.897601 L -3.37644 -0.675362 L -3.3998 -0.451273 L -3.41384 -0.225946 L -3.41853 -1.04054e-15 L -3.41384 0.225946 L -3.3998 0.451273 L -3.37644 0.675362 L -3.34382 0.897601 L -3.30204 1.11738 L -3.25121 1.33409 L -3.19147 1.54715 L -3.12298 1.75597 L -3.04593 1.95998 L -2.96053 2.15861 L -2.86702 2.35133 L -2.76565 2.5376 L -2.65669 2.71692 L -2.54046 2.88878 L -2.41726 3.05274 L -2.28744 3.20832 L -2.15135 3.35511 L -2.00936 3.49271 L -1.86186 3.62073 L -1.70926 3.73882 L -1.55198 3.84667 L -1.39044 3.94398 L -1.22509 4.03047 L -1.05638 4.10592 L -0.884779 4.17012 L -0.710751 4.22288 L -0.534775 4.26407 L -0.357333 4.29357 L -0.178912 4.3113 L -1.33403e-14 4.31722 Z" fill="none" stroke="#FF6B6B" stroke-width="1"/>
</svg>
