<?xml version="1.0" encoding="UTF-8"?>
<svg xmlns="http://www.w3.org/2000/svg" width="500" height="300" viewBox="0 0 500 300">
  <rect width="500" height="300" fill="#fafafa"/>
  <text x="15" y="150" text-anchor="middle" font-family="Arial, sans-serif" font-size="12" fill="#666" transform="rotate(-90 15 150)">Variance (%)</text>
  <text x="250" y="290" text-anchor="middle" font-family="Arial, sans-serif" font-size="12" fill="#666">Principal Component</text>
  <line x1="60" y1="40" x2="60" y2="240" stroke="#666" stroke-width="2"/>
  <line x1="60" y1="240" x2="480" y2="240" stroke="#666" stroke-width="2"/>
  <line x1="55" y1="240" x2="60" y2="240" stroke="#666" stroke-width="1"/>
  <text x="50" y="244" text-anchor="end" font-family="Arial, sans-serif" font-size="10" fill="#666">0.0</text>
  <line x1="60" y1="240" x2="480" y2="240" stroke="#e0e0e0" stroke-width="1" stroke-dasharray="2,2"/>
  <line x1="55" y1="200" x2="60" y2="200" stroke="#666" stroke-width="1"/>
  <text x="50" y="204" text-anchor="end" font-family="Arial, sans-serif" font-size="10" fill="#666">9.9</text>
  <line x1="60" y1="200" x2="480" y2="200" stroke="#e0e0e0" stroke-width="1" stroke-dasharray="2,2"/>
  <line x1="55" y1="160" x2="60" y2="160" stroke="#666" stroke-width="1"/>
  <text x="50" y="164" text-anchor="end" font-family="Arial, sans-serif" font-size="10" fill="#666">19.9</text>
  <line x1="60" y1="160" x2="480" y2="160" stroke="#e0e0e0" stroke-width="1" stroke-dasharray="2,2"/>
  <line x1="55" y1="120" x2="60" y2="120" stroke="#666" stroke-width="1"/>
  <text x="50" y="124" text-anchor="end" font-family="Arial, sans-serif" font-size="10" fill="#666">29.8</text>
  <line x1="60" y1="120" x2="480" y2="120" stroke="#e0e0e0" stroke-width="1" stroke-dasharray="2,2"/>
  <line x1="55" y1="80" x2="60" y2="80" stroke="#666" stroke-width="1"/>
  <text x="50" y="84" text-anchor="end" font-family="Arial, sans-serif" font-size="10" fill="#666">39.7</text>
  <line x1="60" y1="80" x2="480" y2="80" stroke="#e0e0e0" stroke-width="1" stroke-dasharray="2,2"/>
  <line x1="55" y1="40" x2="60" y2="40" stroke="#666" stroke-width="1"/>
  <text x="50" y="44" text-anchor="end" font-family="Arial, sans-serif" font-size="10" fill="#666">49.6</text>
  <line x1="60" y1="40" x2="480" y2="40" stroke="#e0e0e0" stroke-width="1" stroke-dasharray="2,2"/>
  <rect x="70" y="40" width="31" height="200" fill="#4ECDC4" stroke="#333" stroke-width="1"/>
  <text x="86" y="260" text-anchor="middle" font-family="Arial, sans-serif" font-size="10" fill="#666">PC1</text>
  <text x="86" y="35" text-anchor="middle" font-family="Arial, sans-serif" font-size="9" fill="#333">49.6%</text>
  <circle cx="86" cy="140" r="4" fill="#FF6B6B" stroke="#fff" stroke-width="2"/>
  <rect x="123" y="139" width="31" height="101" fill="#4ECDC4" stroke="#333" stroke-width="1"/>
  <text x="138" y="260" text-anchor="middle" font-family="Arial, sans-serif" font-size="10" fill="#666">PC2</text>
  <text x="138" y="134" text-anchor="middle" font-family="Arial, sans-serif" font-size="9" fill="#333">25.2%</text>
  <circle cx="138" cy="189" r="4" fill="#FF6B6B" stroke="#fff" stroke-width="2"/>
  <rect x="175" y="142" width="31" height="98" fill="#999" stroke="#333" stroke-width="1"/>
  <text x="191" y="260" text-anchor="middle" font-family="Arial, sans-serif" font-size="10" fill="#666">PC3</text>
  <text x="191" y="137" text-anchor="middle" font-family="Arial, sans-serif" font-size="9" fill="#333">24.6%</text>
  <circle cx="191" cy="191" r="4" fill="#FF6B6B" stroke="#fff" stroke-width="2"/>
  <rect x="228" y="239" width="31" height="1" fill="#999" stroke="#333" stroke-width="1"/>
  <text x="243" y="260" text-anchor="middle" font-family="Arial, sans-serif" font-size="10" fill="#666">PC4</text>
  <text x="243" y="234" text-anchor="middle" font-family="Arial, sans-serif" font-size="9" fill="#333">0.3%</text>
  <circle cx="243" cy="239" r="4" fill="#FF6B6B" stroke="#fff" stroke-width="2"/>
  <rect x="280" y="240" width="31" height="0" fill="#999" stroke="#333" stroke-width="1"/>
  <text x="296" y="260" text-anchor="middle" font-family="Arial, sans-serif" font-size="10" fill="#666">PC5</text>
  <text x="296" y="235" text-anchor="middle" font-family="Arial, sans-serif" font-size="9" fill="#333">0.1%</text>
  <circle cx="296" cy="240" r="4" fill="#FF6B6B" stroke="#fff" stroke-width="2"/>
  <rect x="333" y="240" width="31" height="0" fill="#999" stroke="#333" stroke-width="1"/>
  <text x="348" y="260" text-anchor="middle" font-family="Arial, sans-serif" font-size="10" fill="#666">PC6</text>
  <text x="348" y="235" text-anchor="middle" font-family="Arial, sans-serif" font-size="9" fill="#333">0.1%</text>
  <circle cx="348" cy="240" r="4" fill="#FF6B6B" stroke="#fff" stroke-width="2"/>
  <rect x="385" y="240" width="31" height="0" fill="#999" stroke="#333" stroke-width="1"/>
  <text x="401" y="260" text-anchor="middle" font-family="Arial, sans-serif" font-size="10" fill="#666">PC7</text>
  <text x="401" y="235" text-anchor="middle" font-family="Arial, sans-serif" font-size="9" fill="#333">0.1%</text>
  <circle cx="401" cy="240" r="4" fill="#FF6B6B" stroke="#fff" stroke-width="2"/>
  <rect x="438" y="240" width="31" height="0" fill="#999" stroke="#333" stroke-width="1"/>
  <text x="453" y="260" text-anchor="middle" font-family="Arial, sans-serif" font-size="10" fill="#666">PC8</text>
  <text x="453" y="235" text-anchor="middle" font-family="Arial, sans-serif" font-size="9" fill="#333">0.0%</text>
  <circle cx="453" cy="240" r="4" fill="#FF6B6B" stroke="#fff" stroke-width="2"/>
  <path d="M 86 140 L 138 189 L 191 191 L 243 239 L 296 240 L 348 240 L 401 240 L 453 240" fill="none" stroke="#FF6B6B" stroke-width="2"/>
</svg>
