<svg xmlns="http://www.w3.org/2000/svg" viewBox="0 0 1 1">
  <!-- Use the path strings below in Plotly layout.shapes with xref/yref='x','y' -->
  <path id="pc_ellipse_95" d="M 2.48998e-14 4.87722 L 0.182047 4.87054 L 0.363595 4.8505 L 0.544147 4.81718 L 0.723207 4.77064 L 0.900285 4.71104 L 1.0749 4.63851 L 1.24656 4.55328 L 1.41481 4.45556 L 1.57918 4.34564 L 1.73922 4.2238 L 1.89449 4.09038 L 2.04457 3.94576 L 2.18905 3.79031 L 2.32753 3.62448 L 2.45962 3.44872 L 2.58498 3.2635 L 2.70325 3.06934 L 2.81411 2.86676 L 2.91726 2.65633 L 3.01241 2.43861 L 3.09931 2.21421 L 3.17771 1.98375 L 3.2474 1.74784 L 3.30819 1.50714 L 3.35991 1.26232 L 3.40242 1.01403 L 3.43561 0.762966 L 3.45938 0.509809 L 3.47367 0.255254 L 3.47843 7.32633e-16 L 3.47367 -0.255254 L 3.45938 -0.509809 L 3.43561 -0.762966 L 3.40242 -1.01403 L 3.35991 -1.26232 L 3.30819 -1.50714 L 3.2474 -1.74784 L 3.17771 -1.98375 L 3.09931 -2.21421 L 3.01241 -2.43861 L 2.91726 -2.65633 L 2.81411 -2.86676 L 2.70325 -3.06934 L 2.58498 -3.2635 L 2.45962 -3.44872 L 2.32753 -3.62448 L 2.18905 -3.79031 L 2.04457 -3.94576 L 1.89449 -4.09038 L 1.73922 -4.2238 L 1.57918 -4.34564 L 1.41481 -4.45556 L 1.24656 -4.55328 L 1.0749 -4.63851 L 0.900285 -4.71104 L 0.723207 -4.77064 L 0.544147 -4.81718 L 0.363595 -4.8505 L 0.182047 -4.87054 L 2.68705e-14 -4.87722 L -0.182047 -4.87054 L -0.363595 -4.8505 L -0.544147 -4.81718 L -0.723207 -4.77064 L -0.900285 -4.71104 L -1.0749 -4.63851 L -1.24656 -4.55328 L -1.41481 -4.45556 L -1.57918 -4.34564 L -1.73922 -4.2238 L -1.89449 -4.09038 L -2.04457 -3.94576 L -2.18905 -3.79031 L -2.32753 -3.62448 L -2.45962 -3.44872 L -2.58498 -3.2635 L -2.70325 -3.06934 L -2.81411 -2.86676 L -2.91726 -2.65633 L -3.01241 -2.43861 L -3.09931 -2.21421 L -3.17771 -1.98375 L -3.2474 -1.74784 L -3.30819 -1.50714 L -3.35991 -1.26232 L -3.40242 -1.01403 L -3.43561 -0.762966 L -3.45938 -0.509809 L -3.47367 -0.255254 L -3.47843 -1.54486e-15 L -3.47367 0.255254 L -3.45938 0.509809 L -3.43561 0.762966 L -3.40242 1.01403 L -3.35991 1.26232 L -3.30819 1.50714 L -3.2474 1.74784 L -3.17771 1.98375 L -3.09931 2.21421 L -3.01241 2.43861 L -2.91726 2.65633 L -2.81411 2.86676 L -2.70325 3.06934 L -2.58498 3.2635 L -2.45962 3.44872 L -2.32753 3.62448 L -2.18905 3.79031 L -2.04457 3.94576 L -1.89449 4.09038 L -1.73922 4.2238 L -1.57918 4.34564 L -1.41481 4.45556 L -1.24656 4.55328 L -1.0749 4.63851 L -0.900285 4.71104 L -0.723207 4.77064 L -0.544147 4.81718 L -0.363595 4.8505 L -0.182047 4.87054 L 2.09584e-14 4.87722 Z" fill="none" stroke="#4ECDC4" stroke-width="1"/>
  <path id="pc_ellipse_99" d="M 2.48998e-14 6.04706 L 0.225712 6.03877 L 0.450806 6.01393 L 0.674664 5.97261 L 0.896673 5.91491 L 1.11622 5.84101 L 1.33272 5.75109 L 1.54555 5.64541 L 1.75416 5.52426 L 1.95795 5.38797 L 2.15638 5.2369 L 2.3489 5.07149 L 2.53498 4.89217 L 2.71411 4.69944 L 2.8858 4.49384 L 3.04958 4.27591 L 3.205 4.04627 L 3.35164 3.80554 L 3.4891 3.55437 L 3.61698 3.29346 L 3.73496 3.02353 L 3.8427 2.74531 L 3.9399 2.45956 L 4.02631 2.16707 L 4.10168 1.86864 L 4.16581 1.56509 L 4.21852 1.25725 L 4.25966 0.945968 L 4.28913 0.632089 L 4.30685 0.316478 L 4.31276 1.06402e-15 L 4.30685 -0.316478 L 4.28913 -0.632089 L 4.25966 -0.945968 L 4.21852 -1.25725 L 4.16581 -1.56509 L 4.10168 -1.86864 L 4.02631 -2.16707 L 3.9399 -2.45956 L 3.8427 -2.74531 L 3.73496 -3.02353 L 3.61698 -3.29346 L 3.4891 -3.55437 L 3.35164 -3.80554 L 3.205 -4.04627 L 3.04958 -4.27591 L 2.8858 -4.49384 L 2.71411 -4.69944 L 2.53498 -4.89217 L 2.3489 -5.07149 L 2.15638 -5.2369 L 1.95795 -5.38797 L 1.75416 -5.52426 L 1.54555 -5.64541 L 1.33272 -5.75109 L 1.11622 -5.84101 L 0.896673 -5.91491 L 0.674664 -5.97261 L 0.450806 -6.01393 L 0.225712 -6.03877 L 2.73432e-14 -6.04706 L -0.225712 -6.03877 L -0.450806 -6.01393 L -0.674664 -5.97261 L -0.896673 -5.91491 L -1.11622 -5.84101 L -1.33272 -5.75109 L -1.54555 -5.64541 L -1.75416 -5.52426 L -1.95795 -5.38797 L -2.15638 -5.2369 L -2.3489 -5.07149 L -2.53498 -4.89217 L -2.71411 -4.69944 L -2.8858 -4.49384 L -3.04958 -4.27591 L -3.205 -4.04627 L -3.35164 -3.80554 L -3.4891 -3.55437 L -3.61698 -3.29346 L -3.73496 -3.02353 L -3.8427 -2.74531 L -3.9399 -2.45956 L -4.02631 -2.16707 L -4.10168 -1.86864 L -4.16581 -1.56509 L -4.21852 -1.25725 L -4.25966 -0.945968 L -4.28913 -0.632089 L -4.30685 -0.316478 L -4.31276 -1.75975e-15 L -4.30685 0.316478 L -4.28913 0.632089 L -4.25966 0.945968 L -4.21852 1.25725 L -4.16581 1.56509 L -4.10168 1.86864 L -4.02631 2.16707 L -3.9399 2.45956 L -3.8427 2.74531 L -3.73496 3.02353 L -3.61698 3.29346 L -3.4891 3.55437 L -3.35164 3.80554 L -3.205 4.04627 L -3.04958 4.27591 L -2.8858 4.49384 L -2.71411 4.69944 L -2.53498 4.89217 L -2.3489 5.07149 L -2.15638 5.2369 L -1.95795 5.38797 L -1.75416 5.52426 L -1.54555 5.64541 L -1.33272 5.75109 L -1.11622 5.84101 L -0.896673 5.91491 L -0.674664 5.97261 L -0.450806 6.01393 L -0.225712 6.03877 L 2.0013e-14 6.04706 Z" fill="none" stroke="#FF6B6B" stroke-width="1"/>
</svg>
