<svg xmlns="http://www.w3.org/2000/svg" viewBox="0 0 1 1">
  <!-- Use the path strings below in Plotly layout.shapes with xref/yref='x','y' -->
  <path id="pc_ellipse_95" d="M -6.55594e-15 4.47504 L 0.203071 4.46891 L 0.405585 4.45053 L 0.606988 4.41995 L 0.806726 4.37725 L 1.00425 4.32256 L 1.19903 4.25602 L 1.39052 4.17781 L 1.57819 4.08816 L 1.76155 3.98729 L 1.94007 3.8755 L 2.11328 3.75309 L 2.28069 3.62039 L 2.44185 3.47776 L 2.59632 3.32561 L 2.74367 3.16433 L 2.88351 2.99439 L 3.01543 2.81624 L 3.1391 2.63037 L 3.25416 2.43728 L 3.3603 2.23752 L 3.45723 2.03163 L 3.54468 1.82016 L 3.62242 1.60371 L 3.69023 1.38286 L 3.74793 1.15823 L 3.79535 0.930414 L 3.83237 0.700051 L 3.85888 0.46777 L 3.87482 0.234206 L 3.88014 1.68262e-14 L 3.87482 -0.234206 L 3.85888 -0.46777 L 3.83237 -0.700051 L 3.79535 -0.930414 L 3.74793 -1.15823 L 3.69023 -1.38286 L 3.62242 -1.60371 L 3.54468 -1.82016 L 3.45723 -2.03163 L 3.3603 -2.23752 L 3.25416 -2.43728 L 3.1391 -2.63037 L 3.01543 -2.81624 L 2.88351 -2.99439 L 2.74367 -3.16433 L 2.59632 -3.32561 L 2.44185 -3.47776 L 2.28069 -3.62039 L 2.11328 -3.75309 L 1.94007 -3.8755 L 1.76155 -3.98729 L 1.57819 -4.08816 L 1.39052 -4.17781 L 1.19903 -4.25602 L 1.00425 -4.32256 L 0.806726 -4.37725 L 0.606988 -4.41995 L 0.405585 -4.45053 L 0.203071 -4.46891 L -4.35765e-15 -4.47504 L -0.203071 -4.46891 L -0.405585 -4.45053 L -0.606988 -4.41995 L -0.806726 -4.37725 L -1.00425 -4.32256 L -1.19903 -4.25602 L -1.39052 -4.17781 L -1.57819 -4.08816 L -1.76155 -3.98729 L -1.94007 -3.8755 L -2.11328 -3.75309 L -2.28069 -3.62039 L -2.44185 -3.47776 L -2.59632 -3.32561 L -2.74367 -3.16433 L -2.88351 -2.99439 L -3.01543 -2.81624 L -3.1391 -2.63037 L -3.25416 -2.43728 L -3.3603 -2.23752 L -3.45723 -2.03163 L -3.54468 -1.82016 L -3.62242 -1.60371 L -3.69023 -1.38286 L -3.74793 -1.15823 L -3.79535 -0.930414 L -3.83237 -0.700051 L -3.85888 -0.46777 L -3.87482 -0.234206 L -3.88014 1.47365e-14 L -3.87482 0.234206 L -3.85888 0.46777 L -3.83237 0.700051 L -3.79535 0.930414 L -3.74793 1.15823 L -3.69023 1.38286 L -3.62242 1.60371 L -3.54468 1.82016 L -3.45723 2.03163 L -3.3603 2.23752 L -3.25416 2.43728 L -3.1391 2.63037 L -3.01543 2.81624 L -2.88351 2.99439 L -2.74367 3.16433 L -2.59632 3.32561 L -2.44185 3.47776 L -2.28069 3.62039 L -2.11328 3.75309 L -1.94007 3.8755 L -1.76155 3.98729 L -1.57819 4.08816 L -1.39052 4.17781 L -1.19903 4.25602 L -1.00425 4.32256 L -0.806726 4.37725 L -0.606988 4.41995 L -0.405585 4.45053 L -0.203071 4.46891 L -1.09525e-14 4.47504 Z" fill="none" stroke="#4ECDC4" stroke-width="1"/>
  <path id="pc_ellipse_99" d="M -6.55594e-15 5.54841 L 0.251779 5.54081 L 0.502867 5.51802 L 0.752577 5.4801 L 1.00022 5.42717 L 1.24513 5.35935 L 1.48662 5.27685 L 1.72404 5.17989 L 1.95673 5.06873 L 2.18406 4.94367 L 2.40541 4.80507 L 2.62016 4.65329 L 2.82773 4.48876 L 3.02754 4.31193 L 3.21906 4.12327 L 3.40176 3.92332 L 3.57513 3.71261 L 3.73871 3.49173 L 3.89203 3.26127 L 4.03469 3.02188 L 4.16629 2.77421 L 4.28647 2.51893 L 4.3949 2.25674 L 4.49128 1.98837 L 4.57536 1.71455 L 4.64689 1.43603 L 4.70569 1.15358 L 4.75159 0.867963 L 4.78446 0.579967 L 4.80422 0.290381 L 4.81082 1.71302e-14 L 4.80422 -0.290381 L 4.78446 -0.579967 L 4.75159 -0.867963 L 4.70569 -1.15358 L 4.64689 -1.43603 L 4.57536 -1.71455 L 4.49128 -1.98837 L 4.3949 -2.25674 L 4.28647 -2.51893 L 4.16629 -2.77421 L 4.03469 -3.02188 L 3.89203 -3.26127 L 3.73871 -3.49173 L 3.57513 -3.71261 L 3.40176 -3.92332 L 3.21906 -4.12327 L 3.02754 -4.31193 L 2.82773 -4.48876 L 2.62016 -4.65329 L 2.40541 -4.80507 L 2.18406 -4.94367 L 1.95673 -5.06873 L 1.72404 -5.17989 L 1.48662 -5.27685 L 1.24513 -5.35935 L 1.00022 -5.42717 L 0.752577 -5.4801 L 0.502867 -5.51802 L 0.251779 -5.54081 L -3.83037e-15 -5.54841 L -0.251779 -5.54081 L -0.502867 -5.51802 L -0.752577 -5.4801 L -1.00022 -5.42717 L -1.24513 -5.35935 L -1.48662 -5.27685 L -1.72404 -5.17989 L -1.95673 -5.06873 L -2.18406 -4.94367 L -2.40541 -4.80507 L -2.62016 -4.65329 L -2.82773 -4.48876 L -3.02754 -4.31193 L -3.21906 -4.12327 L -3.40176 -3.92332 L -3.57513 -3.71261 L -3.73871 -3.49173 L -3.89203 -3.26127 L -4.03469 -3.02188 L -4.16629 -2.77421 L -4.28647 -2.51893 L -4.3949 -2.25674 L -4.49128 -1.98837 L -4.57536 -1.71455 L -4.64689 -1.43603 L -4.70569 -1.15358 L -4.75159 -0.867963 L -4.78446 -0.579967 L -4.80422 -0.290381 L -4.81082 1.45393e-14 L -4.80422 0.290381 L -4.78446 0.579967 L -4.75159 0.867963 L -4.70569 1.15358 L -4.64689 1.43603 L -4.57536 1.71455 L -4.49128 1.98837 L -4.3949 2.25674 L -4.28647 2.51893 L -4.16629 2.77421 L -4.03469 3.02188 L -3.89203 3.26127 L -3.73871 3.49173 L -3.57513 3.71261 L -3.40176 3.92332 L -3.21906 4.12327 L -3.02754 4.31193 L -2.82773 4.48876 L -2.62016 4.65329 L -2.40541 4.80507 L -2.18406 4.94367 L -1.95673 5.06873 L -1.72404 5.17989 L -1.48662 5.27685 L -1.24513 5.35935 L -1.00022 5.42717 L -0.752577 5.4801 L -0.502867 5.51802 L -0.251779 5.54081 L -1.20071e-14 5.54841 Z" fill="none" stroke="#FF6B6B" stroke-width="1"/>
</svg>
