<svg xmlns="http://www.w3.org/2000/svg" viewBox="0 0 1 1">
  <!-- Use the path strings below in Plotly layout.shapes with xref/yref='x','y' -->
  <path id="pc_ellipse_95" d="M 7.7236e-15 9.3106 L 0.0711703 9.29784 L 0.142146 9.25959 L 0.212731 9.19597 L 0.282734 9.10714 L 0.351961 8.99335 L 0.420224 8.85491 L 0.487335 8.69219 L 0.553111 8.50566 L 0.61737 8.2958 L 0.679937 8.06322 L 0.740641 7.80853 L 0.799314 7.53243 L 0.855797 7.23569 L 0.909933 6.91912 L 0.961576 6.58359 L 1.01058 6.23001 L 1.05682 5.85935 L 1.10016 5.47263 L 1.14049 5.07092 L 1.17769 4.6553 L 1.21166 4.22692 L 1.24231 3.78696 L 1.26955 3.33662 L 1.29332 2.87713 L 1.31354 2.40976 L 1.33016 1.93578 L 1.34313 1.4565 L 1.35242 0.973223 L 1.35801 0.487279 L 1.35987 -2.16337e-15 L 1.35801 -0.487279 L 1.35242 -0.973223 L 1.34313 -1.4565 L 1.33016 -1.93578 L 1.31354 -2.40976 L 1.29332 -2.87713 L 1.26955 -3.33662 L 1.24231 -3.78696 L 1.21166 -4.22692 L 1.17769 -4.6553 L 1.14049 -5.07092 L 1.10016 -5.47263 L 1.05682 -5.85935 L 1.01058 -6.23001 L 0.961576 -6.58359 L 0.909933 -6.91912 L 0.855797 -7.23569 L 0.799314 -7.53243 L 0.740641 -7.80853 L 0.679937 -8.06322 L 0.61737 -8.2958 L 0.553111 -8.50566 L 0.487335 -8.69219 L 0.420224 -8.85491 L 0.351961 -8.99335 L 0.282734 -9.10714 L 0.212731 -9.19597 L 0.142146 -9.25959 L 0.0711703 -9.29784 L 8.49404e-15 -9.3106 L -0.0711703 -9.29784 L -0.142146 -9.25959 L -0.212731 -9.19597 L -0.282734 -9.10714 L -0.351961 -8.99335 L -0.420224 -8.85491 L -0.487335 -8.69219 L -0.553111 -8.50566 L -0.61737 -8.2958 L -0.679937 -8.06322 L -0.740641 -7.80853 L -0.799314 -7.53243 L -0.855797 -7.23569 L -0.909933 -6.91912 L -0.961576 -6.58359 L -1.01058 -6.23001 L -1.05682 -5.85935 L -1.10016 -5.47263 L -1.14049 -5.07092 L -1.17769 -4.6553 L -1.21166 -4.22692 L -1.24231 -3.78696 L -1.26955 -3.33662 L -1.29332 -2.87713 L -1.31354 -2.40976 L -1.33016 -1.93578 L -1.34313 -1.4565 L -1.35242 -0.973223 L -1.35801 -0.487279 L -1.35987 -6.5111e-15 L -1.35801 0.487279 L -1.35242 0.973223 L -1.34313 1.4565 L -1.33016 1.93578 L -1.31354 2.40976 L -1.29332 2.87713 L -1.26955 3.33662 L -1.24231 3.78696 L -1.21166 4.22692 L -1.17769 4.6553 L -1.14049 5.07092 L -1.10016 5.47263 L -1.05682 5.85935 L -1.01058 6.23001 L -0.961576 6.58359 L -0.909933 6.91912 L -0.855797 7.23569 L -0.799314 7.53243 L -0.740641 7.80853 L -0.679937 8.06322 L -0.61737 8.2958 L -0.553111 8.50566 L -0.487335 8.69219 L -0.420224 8.85491 L -0.351961 8.99335 L -0.282734 9.10714 L -0.212731 9.19597 L -0.142146 9.25959 L -0.0711703 9.29784 L 6.18273e-15 9.3106 Z" fill="none" stroke="#4ECDC4" stroke-width="1"/>
  <path id="pc_ellipse_99" d="M 7.7236e-15 11.5438 L 0.088241 11.528 L 0.17624 11.4806 L 0.263756 11.4017 L 0.350549 11.2915 L 0.436381 11.1505 L 0.521018 10.9788 L 0.604226 10.7771 L 0.685778 10.5458 L 0.76545 10.2856 L 0.843024 9.99723 L 0.918288 9.68145 L 0.991034 9.33913 L 1.06106 8.97122 L 1.12819 8.57872 L 1.19222 8.1627 L 1.25298 7.72431 L 1.31031 7.26475 L 1.36404 6.78528 L 1.41404 6.28721 L 1.46016 5.7719 L 1.50228 5.24078 L 1.54028 4.69529 L 1.57406 4.13693 L 1.60353 3.56723 L 1.6286 2.98776 L 1.6492 2.40009 L 1.66529 1.80585 L 1.67681 1.20666 L 1.68374 0.604156 L 1.68605 -1.53076e-15 L 1.68374 -0.604156 L 1.67681 -1.20666 L 1.66529 -1.80585 L 1.6492 -2.40009 L 1.6286 -2.98776 L 1.60353 -3.56723 L 1.57406 -4.13693 L 1.54028 -4.69529 L 1.50228 -5.24078 L 1.46016 -5.7719 L 1.41404 -6.28721 L 1.36404 -6.78528 L 1.31031 -7.26475 L 1.25298 -7.72431 L 1.19222 -8.1627 L 1.12819 -8.57872 L 1.06106 -8.97122 L 0.991034 -9.33913 L 0.918288 -9.68145 L 0.843024 -9.99723 L 0.76545 -10.2856 L 0.685778 -10.5458 L 0.604226 -10.7771 L 0.521018 -10.9788 L 0.436381 -11.1505 L 0.350549 -11.2915 L 0.263756 -11.4017 L 0.17624 -11.4806 L 0.088241 -11.528 L 8.67883e-15 -11.5438 L -0.088241 -11.528 L -0.17624 -11.4806 L -0.263756 -11.4017 L -0.350549 -11.2915 L -0.436381 -11.1505 L -0.521018 -10.9788 L -0.604226 -10.7771 L -0.685778 -10.5458 L -0.76545 -10.2856 L -0.843024 -9.99723 L -0.918288 -9.68145 L -0.991034 -9.33913 L -1.06106 -8.97122 L -1.12819 -8.57872 L -1.19222 -8.1627 L -1.25298 -7.72431 L -1.31031 -7.26475 L -1.36404 -6.78528 L -1.41404 -6.28721 L -1.46016 -5.7719 L -1.50228 -5.24078 L -1.54028 -4.69529 L -1.57406 -4.13693 L -1.60353 -3.56723 L -1.6286 -2.98776 L -1.6492 -2.40009 L -1.66529 -1.80585 L -1.67681 -1.20666 L -1.68374 -0.604156 L -1.68605 -6.92132e-15 L -1.68374 0.604156 L -1.67681 1.20666 L -1.66529 1.80585 L -1.6492 2.40009 L -1.6286 2.98776 L -1.60353 3.56723 L -1.57406 4.13693 L -1.54028 4.69529 L -1.50228 5.24078 L -1.46016 5.7719 L -1.41404 6.28721 L -1.36404 6.78528 L -1.31031 7.26475 L -1.25298 7.72431 L -1.19222 8.1627 L -1.12819 8.57872 L -1.06106 8.97122 L -0.991034 9.33913 L -0.918288 9.68145 L -0.843024 9.99723 L -0.76545 10.2856 L -0.685778 10.5458 L -0.604226 10.7771 L -0.521018 10.9788 L -0.436381 11.1505 L -0.350549 11.2915 L -0.263756 11.4017 L -0.17624 11.4806 L -0.088241 11.528 L 5.81314e-15 11.5438 Z" fill="none" stroke="#FF6B6B" stroke-width="1"/>
</svg>
