<svg xmlns="http://www.w3.org/2000/svg" viewBox="0 0 1 1">
  <!-- Use the path strings below in Plotly layout.shapes with xref/yref='x','y' -->
  <path id="pc_ellipse_95" d="M -1.79175e-15 4.86832 L 0.218808 4.86165 L 0.437016 4.84165 L 0.654026 4.80838 L 0.869244 4.76194 L 1.08208 4.70244 L 1.29195 4.63005 L 1.49828 4.54497 L 1.7005 4.44743 L 1.89806 4.33771 L 2.09042 4.21609 L 2.27704 4.08292 L 2.45743 3.93855 L 2.63108 3.7834 L 2.79752 3.61787 L 2.95629 3.44242 L 3.10696 3.25754 L 3.24912 3.06373 L 3.38236 2.86153 L 3.50634 2.65148 L 3.62071 2.43416 L 3.72515 2.21017 L 3.81938 1.98012 L 3.90314 1.74465 L 3.97621 1.50439 L 4.03837 1.26001 L 4.08947 1.01218 L 4.12936 0.761573 L 4.15793 0.508878 L 4.1751 0.254788 L 4.18083 8.11739e-15 L 4.1751 -0.254788 L 4.15793 -0.508878 L 4.12936 -0.761573 L 4.08947 -1.01218 L 4.03837 -1.26001 L 3.97621 -1.50439 L 3.90314 -1.74465 L 3.81938 -1.98012 L 3.72515 -2.21017 L 3.62071 -2.43416 L 3.50634 -2.65148 L 3.38236 -2.86153 L 3.24912 -3.06373 L 3.10696 -3.25754 L 2.95629 -3.44242 L 2.79752 -3.61787 L 2.63108 -3.7834 L 2.45743 -3.93855 L 2.27704 -4.08292 L 2.09042 -4.21609 L 1.89806 -4.33771 L 1.7005 -4.44743 L 1.49828 -4.54497 L 1.29195 -4.63005 L 1.08208 -4.70244 L 0.869244 -4.76194 L 0.654026 -4.80838 L 0.437016 -4.84165 L 0.218808 -4.86165 L 5.76897e-16 -4.86832 L -0.218808 -4.86165 L -0.437016 -4.84165 L -0.654026 -4.80838 L -0.869244 -4.76194 L -1.08208 -4.70244 L -1.29195 -4.63005 L -1.49828 -4.54497 L -1.7005 -4.44743 L -1.89806 -4.33771 L -2.09042 -4.21609 L -2.27704 -4.08292 L -2.45743 -3.93855 L -2.63108 -3.7834 L -2.79752 -3.61787 L -2.95629 -3.44242 L -3.10696 -3.25754 L -3.24912 -3.06373 L -3.38236 -2.86153 L -3.50634 -2.65148 L -3.62071 -2.43416 L -3.72515 -2.21017 L -3.81938 -1.98012 L -3.90314 -1.74465 L -3.97621 -1.50439 L -4.03837 -1.26001 L -4.08947 -1.01218 L -4.12936 -0.761573 L -4.15793 -0.508878 L -4.1751 -0.254788 L -4.18083 5.84405e-15 L -4.1751 0.254788 L -4.15793 0.508878 L -4.12936 0.761573 L -4.08947 1.01218 L -4.03837 1.26001 L -3.97621 1.50439 L -3.90314 1.74465 L -3.81938 1.98012 L -3.72515 2.21017 L -3.62071 2.43416 L -3.50634 2.65148 L -3.38236 2.86153 L -3.24912 3.06373 L -3.10696 3.25754 L -2.95629 3.44242 L -2.79752 3.61787 L -2.63108 3.7834 L -2.45743 3.93855 L -2.27704 4.08292 L -2.09042 4.21609 L -1.89806 4.33771 L -1.7005 4.44743 L -1.49828 4.54497 L -1.29195 4.63005 L -1.08208 4.70244 L -0.869244 4.76194 L -0.654026 4.80838 L -0.437016 4.84165 L -0.218808 4.86165 L -6.52905e-15 4.86832 Z" fill="none" stroke="#4ECDC4" stroke-width="1"/>
  <path id="pc_ellipse_99" d="M -1.79175e-15 6.03602 L 0.27129 6.02775 L 0.541837 6.00295 L 0.810898 5.9617 L 1.07774 5.90412 L 1.34162 5.83035 L 1.60183 5.74059 L 1.85765 5.63511 L 2.10837 5.51418 L 2.35332 5.37813 L 2.59182 5.22734 L 2.82321 5.06223 L 3.04686 4.88324 L 3.26216 4.69087 L 3.46853 4.48564 L 3.66538 4.26811 L 3.85219 4.03888 L 4.02844 3.79859 L 4.19364 3.54788 L 4.34736 3.28745 L 4.48916 3.01801 L 4.61865 2.74029 L 4.73548 2.45507 L 4.83934 2.16312 L 4.92993 1.86523 L 5.007 1.56224 L 5.07036 1.25496 L 5.11981 0.944241 L 5.15523 0.630936 L 5.17653 0.315901 L 5.18363 8.44817e-15 L 5.17653 -0.315901 L 5.15523 -0.630936 L 5.11981 -0.944241 L 5.07036 -1.25496 L 5.007 -1.56224 L 4.92993 -1.86523 L 4.83934 -2.16312 L 4.73548 -2.45507 L 4.61865 -2.74029 L 4.48916 -3.01801 L 4.34736 -3.28745 L 4.19364 -3.54788 L 4.02844 -3.79859 L 3.85219 -4.03888 L 3.66538 -4.26811 L 3.46853 -4.48564 L 3.26216 -4.69087 L 3.04686 -4.88324 L 2.82321 -5.06223 L 2.59182 -5.22734 L 2.35332 -5.37813 L 2.10837 -5.51418 L 1.85765 -5.63511 L 1.60183 -5.74059 L 1.34162 -5.83035 L 1.07774 -5.90412 L 0.810898 -5.9617 L 0.541837 -6.00295 L 0.27129 -6.02775 L 1.14503e-15 -6.03602 L -0.27129 -6.02775 L -0.541837 -6.00295 L -0.810898 -5.9617 L -1.07774 -5.90412 L -1.34162 -5.83035 L -1.60183 -5.74059 L -1.85765 -5.63511 L -2.10837 -5.51418 L -2.35332 -5.37813 L -2.59182 -5.22734 L -2.82321 -5.06223 L -3.04686 -4.88324 L -3.26216 -4.69087 L -3.46853 -4.48564 L -3.66538 -4.26811 L -3.85219 -4.03888 L -4.02844 -3.79859 L -4.19364 -3.54788 L -4.34736 -3.28745 L -4.48916 -3.01801 L -4.61865 -2.74029 L -4.73548 -2.45507 L -4.83934 -2.16312 L -4.92993 -1.86523 L -5.007 -1.56224 L -5.07036 -1.25496 L -5.11981 -0.944241 L -5.15523 -0.630936 L -5.17653 -0.315901 L -5.18363 5.62955e-15 L -5.17653 0.315901 L -5.15523 0.630936 L -5.11981 0.944241 L -5.07036 1.25496 L -5.007 1.56224 L -4.92993 1.86523 L -4.83934 2.16312 L -4.73548 2.45507 L -4.61865 2.74029 L -4.48916 3.01801 L -4.34736 3.28745 L -4.19364 3.54788 L -4.02844 3.79859 L -3.85219 4.03888 L -3.66538 4.26811 L -3.46853 4.48564 L -3.26216 4.69087 L -3.04686 4.88324 L -2.82321 5.06223 L -2.59182 5.22734 L -2.35332 5.37813 L -2.10837 5.51418 L -1.85765 5.63511 L -1.60183 5.74059 L -1.34162 5.83035 L -1.07774 5.90412 L -0.810898 5.9617 L -0.541837 6.00295 L -0.27129 6.02775 L -7.66532e-15 6.03602 Z" fill="none" stroke="#FF6B6B" stroke-width="1"/>
</svg>
