<?xml version="1.0" encoding="UTF-8"?>
<svg xmlns="http://www.w3.org/2000/svg" width="500" height="300" viewBox="0 0 500 300">
  <rect width="500" height="300" fill="#fafafa"/>
  <text x="15" y="150" text-anchor="middle" font-family="Arial, sans-serif" font-size="12" fill="#666" transform="rotate(-90 15 150)">Variance (%)</text>
  <text x="250" y="290" text-anchor="middle" font-family="Arial, sans-serif" font-size="12" fill="#666">Principal Component</text>
  <line x1="60" y1="40" x2="60" y2="240" stroke="#666" stroke-width="2"/>
  <line x1="60" y1="240" x2="480" y2="240" stroke="#666" stroke-width="2"/>
  <line x1="55" y1="240" x2="60" y2="240" stroke="#666" stroke-width="1"/>
  <text x="50" y="244" text-anchor="end" font-family="Arial, sans-serif" font-size="10" fill="#666">0.0</text>
  <line x1="60" y1="240" x2="480" y2="240" stroke="#e0e0e0" stroke-width="1" stroke-dasharray="2,2"/>
  <line x1="55" y1="200" x2="60" y2="200" stroke="#666" stroke-width="1"/>
  <text x="50" y="204" text-anchor="end" font-family="Arial, sans-serif" font-size="10" fill="#666">8.1</text>
  <line x1="60" y1="200" x2="480" y2="200" stroke="#e0e0e0" stroke-width="1" stroke-dasharray="2,2"/>
  <line x1="55" y1="160" x2="60" y2="160" stroke="#666" stroke-width="1"/>
  <text x="50" y="164" text-anchor="end" font-family="Arial, sans-serif" font-size="10" fill="#666">16.2</text>
  <line x1="60" y1="160" x2="480" y2="160" stroke="#e0e0e0" stroke-width="1" stroke-dasharray="2,2"/>
  <line x1="55" y1="120" x2="60" y2="120" stroke="#666" stroke-width="1"/>
  <text x="50" y="124" text-anchor="end" font-family="Arial, sans-serif" font-size="10" fill="#666">24.3</text>
  <line x1="60" y1="120" x2="480" y2="120" stroke="#e0e0e0" stroke-width="1" stroke-dasharray="2,2"/>
  <line x1="55" y1="80" x2="60" y2="80" stroke="#666" stroke-width="1"/>
  <text x="50" y="84" text-anchor="end" font-family="Arial, sans-serif" font-size="10" fill="#666">32.4</text>
  <line x1="60" y1="80" x2="480" y2="80" stroke="#e0e0e0" stroke-width="1" stroke-dasharray="2,2"/>
  <line x1="55" y1="40" x2="60" y2="40" stroke="#666" stroke-width="1"/>
  <text x="50" y="44" text-anchor="end" font-family="Arial, sans-serif" font-size="10" fill="#666">40.5</text>
  <line x1="60" y1="40" x2="480" y2="40" stroke="#e0e0e0" stroke-width="1" stroke-dasharray="2,2"/>
  <rect x="76" y="40" width="50" height="200" fill="#4ECDC4" stroke="#333" stroke-width="1"/>
  <text x="102" y="260" text-anchor="middle" font-family="Arial, sans-serif" font-size="10" fill="#666">PC1</text>
  <text x="102" y="35" text-anchor="middle" font-family="Arial, sans-serif" font-size="9" fill="#333">40.5%</text>
  <circle cx="102" cy="140" r="4" fill="#FF6B6B" stroke="#fff" stroke-width="2"/>
  <rect x="160" y="115" width="50" height="125" fill="#4ECDC4" stroke="#333" stroke-width="1"/>
  <text x="186" y="260" text-anchor="middle" font-family="Arial, sans-serif" font-size="10" fill="#666">PC2</text>
  <text x="186" y="110" text-anchor="middle" font-family="Arial, sans-serif" font-size="9" fill="#333">25.4%</text>
  <circle cx="186" cy="177" r="4" fill="#FF6B6B" stroke="#fff" stroke-width="2"/>
  <rect x="244" y="129" width="50" height="111" fill="#999" stroke="#333" stroke-width="1"/>
  <text x="270" y="260" text-anchor="middle" font-family="Arial, sans-serif" font-size="10" fill="#666">PC3</text>
  <text x="270" y="124" text-anchor="middle" font-family="Arial, sans-serif" font-size="9" fill="#333">22.6%</text>
  <circle cx="270" cy="184" r="4" fill="#FF6B6B" stroke="#fff" stroke-width="2"/>
  <rect x="328" y="196" width="50" height="44" fill="#999" stroke="#333" stroke-width="1"/>
  <text x="354" y="260" text-anchor="middle" font-family="Arial, sans-serif" font-size="10" fill="#666">PC4</text>
  <text x="354" y="191" text-anchor="middle" font-family="Arial, sans-serif" font-size="9" fill="#333">9.0%</text>
  <circle cx="354" cy="218" r="4" fill="#FF6B6B" stroke="#fff" stroke-width="2"/>
  <rect x="412" y="228" width="50" height="12" fill="#999" stroke="#333" stroke-width="1"/>
  <text x="438" y="260" text-anchor="middle" font-family="Arial, sans-serif" font-size="10" fill="#666">PC5</text>
  <text x="438" y="223" text-anchor="middle" font-family="Arial, sans-serif" font-size="9" fill="#333">2.5%</text>
  <circle cx="438" cy="234" r="4" fill="#FF6B6B" stroke="#fff" stroke-width="2"/>
  <path d="M 102 140 L 186 177 L 270 184 L 354 218 L 438 234" fill="none" stroke="#FF6B6B" stroke-width="2"/>
</svg>
