<svg xmlns="http://www.w3.org/2000/svg" viewBox="0 0 1 1">
  <!-- Use the path strings below in Plotly layout.shapes with xref/yref='x','y' -->
  <path id="pc_ellipse_95" d="M 1.29319e-15 5.43422 L 0.0198909 5.42677 L 0.0397274 5.40445 L 0.0594549 5.36732 L 0.0790195 5.31547 L 0.0983675 5.24905 L 0.117446 5.16825 L 0.136202 5.07328 L 0.154585 4.96441 L 0.172545 4.84193 L 0.190031 4.70617 L 0.206997 4.55752 L 0.223395 4.39638 L 0.239181 4.22318 L 0.254312 4.03841 L 0.268745 3.84257 L 0.282442 3.6362 L 0.295364 3.41987 L 0.307477 3.19415 L 0.318747 2.95969 L 0.329144 2.71711 L 0.338638 2.46708 L 0.347205 2.2103 L 0.354819 1.94745 L 0.361461 1.67927 L 0.367112 1.40648 L 0.371757 1.12984 L 0.375383 0.850099 L 0.377981 0.568031 L 0.379542 0.284405 L 0.380063 -2.33717e-17 L 0.379542 -0.284405 L 0.377981 -0.568031 L 0.375383 -0.850099 L 0.371757 -1.12984 L 0.367112 -1.40648 L 0.361461 -1.67927 L 0.354819 -1.94745 L 0.347205 -2.2103 L 0.338638 -2.46708 L 0.329144 -2.71711 L 0.318747 -2.95969 L 0.307477 -3.19415 L 0.295364 -3.41987 L 0.282442 -3.6362 L 0.268745 -3.84257 L 0.254312 -4.03841 L 0.239181 -4.22318 L 0.223395 -4.39638 L 0.206997 -4.55752 L 0.190031 -4.70617 L 0.172545 -4.84193 L 0.154585 -4.96441 L 0.136202 -5.07328 L 0.117446 -5.16825 L 0.0983675 -5.24905 L 0.0790195 -5.31547 L 0.0594549 -5.36732 L 0.0397274 -5.40445 L 0.0198909 -5.42677 L 1.50851e-15 -5.43422 L -0.0198909 -5.42677 L -0.0397274 -5.40445 L -0.0594549 -5.36732 L -0.0790195 -5.31547 L -0.0983675 -5.24905 L -0.117446 -5.16825 L -0.136202 -5.07328 L -0.154585 -4.96441 L -0.172545 -4.84193 L -0.190031 -4.70617 L -0.206997 -4.55752 L -0.223395 -4.39638 L -0.239181 -4.22318 L -0.254312 -4.03841 L -0.268745 -3.84257 L -0.282442 -3.6362 L -0.295364 -3.41987 L -0.307477 -3.19415 L -0.318747 -2.95969 L -0.329144 -2.71711 L -0.338638 -2.46708 L -0.347205 -2.2103 L -0.354819 -1.94745 L -0.361461 -1.67927 L -0.367112 -1.40648 L -0.371757 -1.12984 L -0.375383 -0.850099 L -0.377981 -0.568031 L -0.379542 -0.284405 L -0.380063 -2.56097e-15 L -0.379542 0.284405 L -0.377981 0.568031 L -0.375383 0.850099 L -0.371757 1.12984 L -0.367112 1.40648 L -0.361461 1.67927 L -0.354819 1.94745 L -0.347205 2.2103 L -0.338638 2.46708 L -0.329144 2.71711 L -0.318747 2.95969 L -0.307477 3.19415 L -0.295364 3.41987 L -0.282442 3.6362 L -0.268745 3.84257 L -0.254312 4.03841 L -0.239181 4.22318 L -0.223395 4.39638 L -0.206997 4.55752 L -0.190031 4.70617 L -0.172545 4.84193 L -0.154585 4.96441 L -0.136202 5.07328 L -0.117446 5.16825 L -0.0983675 5.24905 L -0.0790195 5.31547 L -0.0594549 5.36732 L -0.0397274 5.40445 L -0.0198909 5.42677 L 8.62539e-16 5.43422 Z" fill="none" stroke="#4ECDC4" stroke-width="1"/>
  <path id="pc_ellipse_99" d="M 1.29319e-15 6.73765 L 0.0246619 6.72842 L 0.0492562 6.70074 L 0.0737155 6.6547 L 0.0979728 6.59042 L 0.121962 6.50807 L 0.145616 6.40789 L 0.168871 6.29014 L 0.191664 6.15515 L 0.213931 6.00329 L 0.235612 5.83498 L 0.256646 5.65067 L 0.276978 5.45087 L 0.29655 5.23614 L 0.31531 5.00705 L 0.333205 4.76424 L 0.350187 4.50837 L 0.366209 4.24014 L 0.381227 3.96029 L 0.395201 3.66959 L 0.408091 3.36883 L 0.419863 3.05883 L 0.430484 2.74045 L 0.439925 2.41456 L 0.44816 2.08205 L 0.455167 1.74383 L 0.460926 1.40084 L 0.465422 1.054 L 0.468642 0.704276 L 0.470577 0.352621 L 0.471223 3.45858e-16 L 0.470577 -0.352621 L 0.468642 -0.704276 L 0.465422 -1.054 L 0.460926 -1.40084 L 0.455167 -1.74383 L 0.44816 -2.08205 L 0.439925 -2.41456 L 0.430484 -2.74045 L 0.419863 -3.05883 L 0.408091 -3.36883 L 0.395201 -3.66959 L 0.381227 -3.96029 L 0.366209 -4.24014 L 0.350187 -4.50837 L 0.333205 -4.76424 L 0.31531 -5.00705 L 0.29655 -5.23614 L 0.276978 -5.45087 L 0.256646 -5.65067 L 0.235612 -5.83498 L 0.213931 -6.00329 L 0.191664 -6.15515 L 0.168871 -6.29014 L 0.145616 -6.40789 L 0.121962 -6.50807 L 0.0979728 -6.59042 L 0.0737155 -6.6547 L 0.0492562 -6.70074 L 0.0246619 -6.72842 L 1.56016e-15 -6.73765 L -0.0246619 -6.72842 L -0.0492562 -6.70074 L -0.0737155 -6.6547 L -0.0979728 -6.59042 L -0.121962 -6.50807 L -0.145616 -6.40789 L -0.168871 -6.29014 L -0.191664 -6.15515 L -0.213931 -6.00329 L -0.235612 -5.83498 L -0.256646 -5.65067 L -0.276978 -5.45087 L -0.29655 -5.23614 L -0.31531 -5.00705 L -0.333205 -4.76424 L -0.350187 -4.50837 L -0.366209 -4.24014 L -0.381227 -3.96029 L -0.395201 -3.66959 L -0.408091 -3.36883 L -0.419863 -3.05883 L -0.430484 -2.74045 L -0.439925 -2.41456 L -0.44816 -2.08205 L -0.455167 -1.74383 L -0.460926 -1.40084 L -0.465422 -1.054 L -0.468642 -0.704276 L -0.470577 -0.352621 L -0.471223 -2.8004e-15 L -0.470577 0.352621 L -0.468642 0.704276 L -0.465422 1.054 L -0.460926 1.40084 L -0.455167 1.74383 L -0.44816 2.08205 L -0.439925 2.41456 L -0.430484 2.74045 L -0.419863 3.05883 L -0.408091 3.36883 L -0.395201 3.66959 L -0.381227 3.96029 L -0.366209 4.24014 L -0.350187 4.50837 L -0.333205 4.76424 L -0.31531 5.00705 L -0.29655 5.23614 L -0.276978 5.45087 L -0.256646 5.65067 L -0.235612 5.83498 L -0.213931 6.00329 L -0.191664 6.15515 L -0.168871 6.29014 L -0.145616 6.40789 L -0.121962 6.50807 L -0.0979728 6.59042 L -0.0737155 6.6547 L -0.0492562 6.70074 L -0.0246619 6.72842 L 7.59245e-16 6.73765 Z" fill="none" stroke="#FF6B6B" stroke-width="1"/>
</svg>
