<svg xmlns="http://www.w3.org/2000/svg" viewBox="0 0 1 1">
  <!-- Use the path strings below in Plotly layout.shapes with xref/yref='x','y' -->
  <path id="pc_ellipse_95" d="M -4.68958e-15 4.46072 L 0.164408 4.4546 L 0.328364 4.43628 L 0.491421 4.4058 L 0.653131 4.36324 L 0.813051 4.30872 L 0.970742 4.24239 L 1.12577 4.16444 L 1.27772 4.07507 L 1.42616 3.97453 L 1.57069 3.86309 L 1.71092 3.74107 L 1.84646 3.6088 L 1.97694 3.46663 L 2.102 3.31496 L 2.2213 3.1542 L 2.33451 2.9848 L 2.44132 2.80722 L 2.54144 2.62194 L 2.63459 2.42948 L 2.72052 2.23036 L 2.799 2.02512 L 2.8698 1.81434 L 2.93274 1.59858 L 2.98764 1.37844 L 3.03435 1.15452 L 3.07274 0.927435 L 3.10271 0.69781 L 3.12418 0.466272 L 3.13708 0.233456 L 3.14139 1.63952e-14 L 3.13708 -0.233456 L 3.12418 -0.466272 L 3.10271 -0.69781 L 3.07274 -0.927435 L 3.03435 -1.15452 L 2.98764 -1.37844 L 2.93274 -1.59858 L 2.8698 -1.81434 L 2.799 -2.02512 L 2.72052 -2.23036 L 2.63459 -2.42948 L 2.54144 -2.62194 L 2.44132 -2.80722 L 2.33451 -2.9848 L 2.2213 -3.1542 L 2.102 -3.31496 L 1.97694 -3.46663 L 1.84646 -3.6088 L 1.71092 -3.74107 L 1.57069 -3.86309 L 1.42616 -3.97453 L 1.27772 -4.07507 L 1.12577 -4.16444 L 0.970742 -4.24239 L 0.813051 -4.30872 L 0.653131 -4.36324 L 0.491421 -4.4058 L 0.328364 -4.43628 L 0.164408 -4.4546 L -2.90983e-15 -4.46072 L -0.164408 -4.4546 L -0.328364 -4.43628 L -0.491421 -4.4058 L -0.653131 -4.36324 L -0.813051 -4.30872 L -0.970742 -4.24239 L -1.12577 -4.16444 L -1.27772 -4.07507 L -1.42616 -3.97453 L -1.57069 -3.86309 L -1.71092 -3.74107 L -1.84646 -3.6088 L -1.97694 -3.46663 L -2.102 -3.31496 L -2.2213 -3.1542 L -2.33451 -2.9848 L -2.44132 -2.80722 L -2.54144 -2.62194 L -2.63459 -2.42948 L -2.72052 -2.23036 L -2.799 -2.02512 L -2.8698 -1.81434 L -2.93274 -1.59858 L -2.98764 -1.37844 L -3.03435 -1.15452 L -3.07274 -0.927435 L -3.10271 -0.69781 L -3.12418 -0.466272 L -3.13708 -0.233456 L -3.14139 1.43122e-14 L -3.13708 0.233456 L -3.12418 0.466272 L -3.10271 0.69781 L -3.07274 0.927435 L -3.03435 1.15452 L -2.98764 1.37844 L -2.93274 1.59858 L -2.8698 1.81434 L -2.799 2.02512 L -2.72052 2.23036 L -2.63459 2.42948 L -2.54144 2.62194 L -2.44132 2.80722 L -2.33451 2.9848 L -2.2213 3.1542 L -2.102 3.31496 L -1.97694 3.46663 L -1.84646 3.6088 L -1.71092 3.74107 L -1.57069 3.86309 L -1.42616 3.97453 L -1.27772 4.07507 L -1.12577 4.16444 L -0.970742 4.24239 L -0.813051 4.30872 L -0.653131 4.36324 L -0.491421 4.4058 L -0.328364 4.43628 L -0.164408 4.4546 L -8.24909e-15 4.46072 Z" fill="none" stroke="#4ECDC4" stroke-width="1"/>
  <path id="pc_ellipse_99" d="M -4.68958e-15 5.53065 L 0.203842 5.52307 L 0.407125 5.50035 L 0.609292 5.46256 L 0.809789 5.40979 L 1.00807 5.3422 L 1.20358 5.25996 L 1.3958 5.1633 L 1.58419 5.0525 L 1.76823 4.92784 L 1.94744 4.78968 L 2.1213 4.63839 L 2.28935 4.47439 L 2.45112 4.29812 L 2.60618 4.11007 L 2.75409 3.91076 L 2.89445 3.70073 L 3.02688 3.48055 L 3.15102 3.25083 L 3.26651 3.01221 L 3.37306 2.76532 L 3.47035 2.51086 L 3.55814 2.24952 L 3.63617 1.98201 L 3.70424 1.70906 L 3.76216 1.43144 L 3.80976 1.14989 L 3.84692 0.865184 L 3.87353 0.57811 L 3.88953 0.289452 L 3.89487 1.66983e-14 L 3.88953 -0.289452 L 3.87353 -0.57811 L 3.84692 -0.865184 L 3.80976 -1.14989 L 3.76216 -1.43144 L 3.70424 -1.70906 L 3.63617 -1.98201 L 3.55814 -2.24952 L 3.47035 -2.51086 L 3.37306 -2.76532 L 3.26651 -3.01221 L 3.15102 -3.25083 L 3.02688 -3.48055 L 2.89445 -3.70073 L 2.75409 -3.91076 L 2.60618 -4.11007 L 2.45112 -4.29812 L 2.28935 -4.47439 L 2.1213 -4.63839 L 1.94744 -4.78968 L 1.76823 -4.92784 L 1.58419 -5.0525 L 1.3958 -5.1633 L 1.20358 -5.25996 L 1.00807 -5.3422 L 0.809789 -5.40979 L 0.609292 -5.46256 L 0.407125 -5.50035 L 0.203842 -5.52307 L -2.48294e-15 -5.53065 L -0.203842 -5.52307 L -0.407125 -5.50035 L -0.609292 -5.46256 L -0.809789 -5.40979 L -1.00807 -5.3422 L -1.20358 -5.25996 L -1.3958 -5.1633 L -1.58419 -5.0525 L -1.76823 -4.92784 L -1.94744 -4.78968 L -2.1213 -4.63839 L -2.28935 -4.47439 L -2.45112 -4.29812 L -2.60618 -4.11007 L -2.75409 -3.91076 L -2.89445 -3.70073 L -3.02688 -3.48055 L -3.15102 -3.25083 L -3.26651 -3.01221 L -3.37306 -2.76532 L -3.47035 -2.51086 L -3.55814 -2.24952 L -3.63617 -1.98201 L -3.70424 -1.70906 L -3.76216 -1.43144 L -3.80976 -1.14989 L -3.84692 -0.865184 L -3.87353 -0.57811 L -3.88953 -0.289452 L -3.89487 1.41157e-14 L -3.88953 0.289452 L -3.87353 0.57811 L -3.84692 0.865184 L -3.80976 1.14989 L -3.76216 1.43144 L -3.70424 1.70906 L -3.63617 1.98201 L -3.55814 2.24952 L -3.47035 2.51086 L -3.37306 2.76532 L -3.26651 3.01221 L -3.15102 3.25083 L -3.02688 3.48055 L -2.89445 3.70073 L -2.75409 3.91076 L -2.60618 4.11007 L -2.45112 4.29812 L -2.28935 4.47439 L -2.1213 4.63839 L -1.94744 4.78968 L -1.76823 4.92784 L -1.58419 5.0525 L -1.3958 5.1633 L -1.20358 5.25996 L -1.00807 5.3422 L -0.809789 5.40979 L -0.609292 5.46256 L -0.407125 5.50035 L -0.203842 5.52307 L -9.10286e-15 5.53065 Z" fill="none" stroke="#FF6B6B" stroke-width="1"/>
</svg>
