<?xml version="1.0" encoding="UTF-8"?>
<svg xmlns="http://www.w3.org/2000/svg" width="500" height="300" viewBox="0 0 500 300">
  <rect width="500" height="300" fill="#fafafa"/>
  <text x="15" y="150" text-anchor="middle" font-family="Arial, sans-serif" font-size="12" fill="#666" transform="rotate(-90 15 150)">Variance (%)</text>
  <text x="250" y="290" text-anchor="middle" font-family="Arial, sans-serif" font-size="12" fill="#666">Principal Component</text>
  <line x1="60" y1="40" x2="60" y2="240" stroke="#666" stroke-width="2"/>
  <line x1="60" y1="240" x2="480" y2="240" stroke="#666" stroke-width="2"/>
  <line x1="55" y1="240" x2="60" y2="240" stroke="#666" stroke-width="1"/>
  <text x="50" y="244" text-anchor="end" font-family="Arial, sans-serif" font-size="10" fill="#666">0.0</text>
  <line x1="60" y1="240" x2="480" y2="240" stroke="#e0e0e0" stroke-width="1" stroke-dasharray="2,2"/>
  <line x1="55" y1="200" x2="60" y2="200" stroke="#666" stroke-width="1"/>
  <text x="50" y="204" text-anchor="end" font-family="Arial, sans-serif" font-size="10" fill="#666">6.2</text>
  <line x1="60" y1="200" x2="480" y2="200" stroke="#e0e0e0" stroke-width="1" stroke-dasharray="2,2"/>
  <line x1="55" y1="160" x2="60" y2="160" stroke="#666" stroke-width="1"/>
  <text x="50" y="164" text-anchor="end" font-family="Arial, sans-serif" font-size="10" fill="#666">12.3</text>
  <line x1="60" y1="160" x2="480" y2="160" stroke="#e0e0e0" stroke-width="1" stroke-dasharray="2,2"/>
  <line x1="55" y1="120" x2="60" y2="120" stroke="#666" stroke-width="1"/>
  <text x="50" y="124" text-anchor="end" font-family="Arial, sans-serif" font-size="10" fill="#666">18.5</text>
  <line x1="60" y1="120" x2="480" y2="120" stroke="#e0e0e0" stroke-width="1" stroke-dasharray="2,2"/>
  <line x1="55" y1="80" x2="60" y2="80" stroke="#666" stroke-width="1"/>
  <text x="50" y="84" text-anchor="end" font-family="Arial, sans-serif" font-size="10" fill="#666">24.6</text>
  <line x1="60" y1="80" x2="480" y2="80" stroke="#e0e0e0" stroke-width="1" stroke-dasharray="2,2"/>
  <line x1="55" y1="40" x2="60" y2="40" stroke="#666" stroke-width="1"/>
  <text x="50" y="44" text-anchor="end" font-family="Arial, sans-serif" font-size="10" fill="#666">30.8</text>
  <line x1="60" y1="40" x2="480" y2="40" stroke="#e0e0e0" stroke-width="1" stroke-dasharray="2,2"/>
  <rect x="68" y="40" width="25" height="200" fill="#4ECDC4" stroke="#333" stroke-width="1"/>
  <text x="81" y="260" text-anchor="middle" font-family="Arial, sans-serif" font-size="10" fill="#666">PC1</text>
  <text x="81" y="35" text-anchor="middle" font-family="Arial, sans-serif" font-size="9" fill="#333">30.8%</text>
  <circle cx="81" cy="140" r="4" fill="#FF6B6B" stroke="#fff" stroke-width="2"/>
  <rect x="110" y="85" width="25" height="155" fill="#4ECDC4" stroke="#333" stroke-width="1"/>
  <text x="123" y="260" text-anchor="middle" font-family="Arial, sans-serif" font-size="10" fill="#666">PC2</text>
  <text x="123" y="80" text-anchor="middle" font-family="Arial, sans-serif" font-size="9" fill="#333">24.0%</text>
  <circle cx="123" cy="162" r="4" fill="#FF6B6B" stroke="#fff" stroke-width="2"/>
  <rect x="152" y="156" width="25" height="84" fill="#999" stroke="#333" stroke-width="1"/>
  <text x="165" y="260" text-anchor="middle" font-family="Arial, sans-serif" font-size="10" fill="#666">PC3</text>
  <text x="165" y="151" text-anchor="middle" font-family="Arial, sans-serif" font-size="9" fill="#333">13.0%</text>
  <circle cx="165" cy="198" r="4" fill="#FF6B6B" stroke="#fff" stroke-width="2"/>
  <rect x="194" y="194" width="25" height="46" fill="#999" stroke="#333" stroke-width="1"/>
  <text x="207" y="260" text-anchor="middle" font-family="Arial, sans-serif" font-size="10" fill="#666">PC4</text>
  <text x="207" y="189" text-anchor="middle" font-family="Arial, sans-serif" font-size="9" fill="#333">7.1%</text>
  <circle cx="207" cy="217" r="4" fill="#FF6B6B" stroke="#fff" stroke-width="2"/>
  <rect x="236" y="197" width="25" height="43" fill="#999" stroke="#333" stroke-width="1"/>
  <text x="249" y="260" text-anchor="middle" font-family="Arial, sans-serif" font-size="10" fill="#666">PC5</text>
  <text x="249" y="192" text-anchor="middle" font-family="Arial, sans-serif" font-size="9" fill="#333">6.7%</text>
  <circle cx="249" cy="218" r="4" fill="#FF6B6B" stroke="#fff" stroke-width="2"/>
  <rect x="278" y="197" width="25" height="43" fill="#999" stroke="#333" stroke-width="1"/>
  <text x="291" y="260" text-anchor="middle" font-family="Arial, sans-serif" font-size="10" fill="#666">PC6</text>
  <text x="291" y="192" text-anchor="middle" font-family="Arial, sans-serif" font-size="9" fill="#333">6.6%</text>
  <circle cx="291" cy="218" r="4" fill="#FF6B6B" stroke="#fff" stroke-width="2"/>
  <rect x="320" y="205" width="25" height="35" fill="#999" stroke="#333" stroke-width="1"/>
  <text x="333" y="260" text-anchor="middle" font-family="Arial, sans-serif" font-size="10" fill="#666">PC7</text>
  <text x="333" y="200" text-anchor="middle" font-family="Arial, sans-serif" font-size="9" fill="#333">5.4%</text>
  <circle cx="333" cy="222" r="4" fill="#FF6B6B" stroke="#fff" stroke-width="2"/>
  <rect x="362" y="222" width="25" height="18" fill="#999" stroke="#333" stroke-width="1"/>
  <text x="375" y="260" text-anchor="middle" font-family="Arial, sans-serif" font-size="10" fill="#666">PC8</text>
  <text x="375" y="217" text-anchor="middle" font-family="Arial, sans-serif" font-size="9" fill="#333">2.9%</text>
  <circle cx="375" cy="231" r="4" fill="#FF6B6B" stroke="#fff" stroke-width="2"/>
  <rect x="404" y="228" width="25" height="12" fill="#999" stroke="#333" stroke-width="1"/>
  <text x="417" y="260" text-anchor="middle" font-family="Arial, sans-serif" font-size="10" fill="#666">PC9</text>
  <text x="417" y="223" text-anchor="middle" font-family="Arial, sans-serif" font-size="9" fill="#333">2.0%</text>
  <circle cx="417" cy="234" r="4" fill="#FF6B6B" stroke="#fff" stroke-width="2"/>
  <rect x="446" y="236" width="25" height="4" fill="#999" stroke="#333" stroke-width="1"/>
  <text x="459" y="260" text-anchor="middle" font-family="Arial, sans-serif" font-size="10" fill="#666">PC10</text>
  <text x="459" y="231" text-anchor="middle" font-family="Arial, sans-serif" font-size="9" fill="#333">0.7%</text>
  <circle cx="459" cy="238" r="4" fill="#FF6B6B" stroke="#fff" stroke-width="2"/>
  <path d="M 81 140 L 123 162 L 165 198 L 207 217 L 249 218 L 291 218 L 333 222 L 375 231 L 417 234 L 459 238" fill="none" stroke="#FF6B6B" stroke-width="2"/>
</svg>
