<svg xmlns="http://www.w3.org/2000/svg" viewBox="0 0 1 1">
  <!-- Use the path strings below in Plotly layout.shapes with xref/yref='x','y' -->
  <path id="pc_ellipse_95" d="M -2.12168e-14 5.25799 L 0.242933 5.25078 L 0.485201 5.22918 L 0.726138 5.19325 L 0.965086 5.14309 L 1.20139 5.07882 L 1.4344 5.00064 L 1.66347 4.90875 L 1.88799 4.80341 L 2.10734 4.6849 L 2.3209 4.55355 L 2.52811 4.40972 L 2.72838 4.2538 L 2.92118 4.08622 L 3.10597 3.90745 L 3.28225 3.71796 L 3.44953 3.51828 L 3.60736 3.30896 L 3.7553 3.09057 L 3.89295 2.8637 L 4.01992 2.62899 L 4.13588 2.38708 L 4.2405 2.13862 L 4.3335 1.88429 L 4.41462 1.62481 L 4.48364 1.36087 L 4.54037 1.0932 L 4.58466 0.82253 L 4.61638 0.549609 L 4.63544 0.275182 L 4.64181 2.38218e-14 L 4.63544 -0.275182 L 4.61638 -0.549609 L 4.58466 -0.82253 L 4.54037 -1.0932 L 4.48364 -1.36087 L 4.41462 -1.62481 L 4.3335 -1.88429 L 4.2405 -2.13862 L 4.13588 -2.38708 L 4.01992 -2.62899 L 3.89295 -2.8637 L 3.7553 -3.09057 L 3.60736 -3.30896 L 3.44953 -3.51828 L 3.28225 -3.71796 L 3.10597 -3.90745 L 2.92118 -4.08622 L 2.72838 -4.2538 L 2.52811 -4.40972 L 2.3209 -4.55355 L 2.10734 -4.6849 L 1.88799 -4.80341 L 1.66347 -4.90875 L 1.4344 -5.00064 L 1.20139 -5.07882 L 0.965086 -5.14309 L 0.726138 -5.19325 L 0.485201 -5.22918 L 0.242933 -5.25078 L -1.8587e-14 -5.25799 L -0.242933 -5.25078 L -0.485201 -5.22918 L -0.726138 -5.19325 L -0.965086 -5.14309 L -1.20139 -5.07882 L -1.4344 -5.00064 L -1.66347 -4.90875 L -1.88799 -4.80341 L -2.10734 -4.6849 L -2.3209 -4.55355 L -2.52811 -4.40972 L -2.72838 -4.2538 L -2.92118 -4.08622 L -3.10597 -3.90745 L -3.28225 -3.71796 L -3.44953 -3.51828 L -3.60736 -3.30896 L -3.7553 -3.09057 L -3.89295 -2.8637 L -4.01992 -2.62899 L -4.13588 -2.38708 L -4.2405 -2.13862 L -4.3335 -1.88429 L -4.41462 -1.62481 L -4.48364 -1.36087 L -4.54037 -1.0932 L -4.58466 -0.82253 L -4.61638 -0.549609 L -4.63544 -0.275182 L -4.64181 2.13665e-14 L -4.63544 0.275182 L -4.61638 0.549609 L -4.58466 0.82253 L -4.54037 1.0932 L -4.48364 1.36087 L -4.41462 1.62481 L -4.3335 1.88429 L -4.2405 2.13862 L -4.13588 2.38708 L -4.01992 2.62899 L -3.89295 2.8637 L -3.7553 3.09057 L -3.60736 3.30896 L -3.44953 3.51828 L -3.28225 3.71796 L -3.10597 3.90745 L -2.92118 4.08622 L -2.72838 4.2538 L -2.52811 4.40972 L -2.3209 4.55355 L -2.10734 4.6849 L -1.88799 4.80341 L -1.66347 4.90875 L -1.4344 5.00064 L -1.20139 5.07882 L -0.965086 5.14309 L -0.726138 5.19325 L -0.485201 5.22918 L -0.242933 5.25078 L -2.64764e-14 5.25799 Z" fill="none" stroke="#4ECDC4" stroke-width="1"/>
  <path id="pc_ellipse_99" d="M -2.12168e-14 6.51915 L 0.301202 6.51021 L 0.601579 6.48343 L 0.900307 6.43889 L 1.19657 6.37669 L 1.48955 6.29701 L 1.77845 6.20008 L 2.06247 6.08615 L 2.34084 5.95554 L 2.61279 5.8086 L 2.87759 5.64575 L 3.13449 5.46742 L 3.38281 5.2741 L 3.62185 5.06633 L 3.85096 4.84467 L 4.06952 4.60973 L 4.27693 4.36216 L 4.47261 4.10263 L 4.65603 3.83186 L 4.82669 3.55058 L 4.98412 3.25957 L 5.1279 2.95963 L 5.25761 2.65158 L 5.37292 2.33625 L 5.47349 2.01453 L 5.55907 1.68728 L 5.62941 1.35541 L 5.68432 1.01982 L 5.72364 0.681436 L 5.74728 0.341186 L 5.75517 2.41791e-14 L 5.74728 -0.341186 L 5.72364 -0.681436 L 5.68432 -1.01982 L 5.62941 -1.35541 L 5.55907 -1.68728 L 5.47349 -2.01453 L 5.37292 -2.33625 L 5.25761 -2.65158 L 5.1279 -2.95963 L 4.98412 -3.25957 L 4.82669 -3.55058 L 4.65603 -3.83186 L 4.47261 -4.10263 L 4.27693 -4.36216 L 4.06952 -4.60973 L 3.85096 -4.84467 L 3.62185 -5.06633 L 3.38281 -5.2741 L 3.13449 -5.46742 L 2.87759 -5.64575 L 2.61279 -5.8086 L 2.34084 -5.95554 L 2.06247 -6.08615 L 1.77845 -6.20008 L 1.48955 -6.29701 L 1.19657 -6.37669 L 0.900307 -6.43889 L 0.601579 -6.48343 L 0.301202 -6.51021 L -1.79562e-14 -6.51915 L -0.301202 -6.51021 L -0.601579 -6.48343 L -0.900307 -6.43889 L -1.19657 -6.37669 L -1.48955 -6.29701 L -1.77845 -6.20008 L -2.06247 -6.08615 L -2.34084 -5.95554 L -2.61279 -5.8086 L -2.87759 -5.64575 L -3.13449 -5.46742 L -3.38281 -5.2741 L -3.62185 -5.06633 L -3.85096 -4.84467 L -4.06952 -4.60973 L -4.27693 -4.36216 L -4.47261 -4.10263 L -4.65603 -3.83186 L -4.82669 -3.55058 L -4.98412 -3.25957 L -5.1279 -2.95963 L -5.25761 -2.65158 L -5.37292 -2.33625 L -5.47349 -2.01453 L -5.55907 -1.68728 L -5.62941 -1.35541 L -5.68432 -1.01982 L -5.72364 -0.681436 L -5.74728 -0.341186 L -5.75517 2.11348e-14 L -5.74728 0.341186 L -5.72364 0.681436 L -5.68432 1.01982 L -5.62941 1.35541 L -5.55907 1.68728 L -5.47349 2.01453 L -5.37292 2.33625 L -5.25761 2.65158 L -5.1279 2.95963 L -4.98412 3.25957 L -4.82669 3.55058 L -4.65603 3.83186 L -4.47261 4.10263 L -4.27693 4.36216 L -4.06952 4.60973 L -3.85096 4.84467 L -3.62185 5.06633 L -3.38281 5.2741 L -3.13449 5.46742 L -2.87759 5.64575 L -2.61279 5.8086 L -2.34084 5.95554 L -2.06247 6.08615 L -1.77845 6.20008 L -1.48955 6.29701 L -1.19657 6.37669 L -0.900307 6.43889 L -0.601579 6.48343 L -0.301202 6.51021 L -2.7738e-14 6.51915 Z" fill="none" stroke="#FF6B6B" stroke-width="1"/>
</svg>
