<svg xmlns="http://www.w3.org/2000/svg" viewBox="0 0 1 1">
  <!-- Use the path strings below in Plotly layout.shapes with xref/yref='x','y' -->
  <path id="pc_ellipse_95" d="M -1.14516e-14 6.49656 L 0.255357 6.48766 L 0.510013 6.46097 L 0.763272 6.41658 L 1.01444 6.3546 L 1.26283 6.2752 L 1.50775 6.1786 L 1.74854 6.06506 L 1.98454 5.93491 L 2.2151 5.78848 L 2.43959 5.62619 L 2.65739 5.44848 L 2.86791 5.25583 L 3.07057 5.04878 L 3.26481 4.82789 L 3.4501 4.59376 L 3.62594 4.34705 L 3.79184 4.08842 L 3.94734 3.81858 L 4.09203 3.53828 L 4.2255 3.24828 L 4.34738 2.94938 L 4.45735 2.64239 L 4.55511 2.32816 L 4.64038 2.00755 L 4.71293 1.68143 L 4.77256 1.35071 L 4.81911 1.01629 L 4.85245 0.679076 L 4.87249 0.340004 L 4.87918 7.11965e-15 L 4.87249 -0.340004 L 4.85245 -0.679076 L 4.81911 -1.01629 L 4.77256 -1.35071 L 4.71293 -1.68143 L 4.64038 -2.00755 L 4.55511 -2.32816 L 4.45735 -2.64239 L 4.34738 -2.94938 L 4.2255 -3.24828 L 4.09203 -3.53828 L 3.94734 -3.81858 L 3.79184 -4.08842 L 3.62594 -4.34705 L 3.4501 -4.59376 L 3.26481 -4.82789 L 3.07057 -5.04878 L 2.86791 -5.25583 L 2.65739 -5.44848 L 2.43959 -5.62619 L 2.2151 -5.78848 L 1.98454 -5.93491 L 1.74854 -6.06506 L 1.50775 -6.1786 L 1.26283 -6.2752 L 1.01444 -6.3546 L 0.763272 -6.41658 L 0.510013 -6.46097 L 0.255357 -6.48766 L -8.68728e-15 -6.49656 L -0.255357 -6.48766 L -0.510013 -6.46097 L -0.763272 -6.41658 L -1.01444 -6.3546 L -1.26283 -6.2752 L -1.50775 -6.1786 L -1.74854 -6.06506 L -1.98454 -5.93491 L -2.2151 -5.78848 L -2.43959 -5.62619 L -2.65739 -5.44848 L -2.86791 -5.25583 L -3.07057 -5.04878 L -3.26481 -4.82789 L -3.4501 -4.59376 L -3.62594 -4.34705 L -3.79184 -4.08842 L -3.94734 -3.81858 L -4.09203 -3.53828 L -4.2255 -3.24828 L -4.34738 -2.94938 L -4.45735 -2.64239 L -4.55511 -2.32816 L -4.64038 -2.00755 L -4.71293 -1.68143 L -4.77256 -1.35071 L -4.81911 -1.01629 L -4.85245 -0.679076 L -4.87249 -0.340004 L -4.87918 4.08597e-15 L -4.87249 0.340004 L -4.85245 0.679076 L -4.81911 1.01629 L -4.77256 1.35071 L -4.71293 1.68143 L -4.64038 2.00755 L -4.55511 2.32816 L -4.45735 2.64239 L -4.34738 2.94938 L -4.2255 3.24828 L -4.09203 3.53828 L -3.94734 3.81858 L -3.79184 4.08842 L -3.62594 4.34705 L -3.4501 4.59376 L -3.26481 4.82789 L -3.07057 5.04878 L -2.86791 5.25583 L -2.65739 5.44848 L -2.43959 5.62619 L -2.2151 5.78848 L -1.98454 5.93491 L -1.74854 6.06506 L -1.50775 6.1786 L -1.26283 6.2752 L -1.01444 6.3546 L -0.763272 6.41658 L -0.510013 6.46097 L -0.255357 6.48766 L -1.69802e-14 6.49656 Z" fill="none" stroke="#4ECDC4" stroke-width="1"/>
  <path id="pc_ellipse_99" d="M -1.14516e-14 8.05481 L 0.316606 8.04377 L 0.632343 8.01068 L 0.946348 7.95564 L 1.25776 7.87879 L 1.56572 7.78034 L 1.86939 7.66058 L 2.16794 7.51981 L 2.46055 7.35843 L 2.74641 7.17688 L 3.02474 6.97567 L 3.29479 6.75533 L 3.5558 6.51647 L 3.80706 6.25976 L 4.04789 5.98589 L 4.27763 5.69561 L 4.49564 5.38972 L 4.70133 5.06905 L 4.89414 4.7345 L 5.07352 4.38696 L 5.23901 4.0274 L 5.39013 3.65681 L 5.52648 3.27618 L 5.64768 2.88658 L 5.7534 2.48907 L 5.84335 2.08474 L 5.91729 1.67469 L 5.975 1.26005 L 6.01634 0.841956 L 6.04119 0.421556 L 6.04948 7.56106e-15 L 6.04119 -0.421556 L 6.01634 -0.841956 L 5.975 -1.26005 L 5.91729 -1.67469 L 5.84335 -2.08474 L 5.7534 -2.48907 L 5.64768 -2.88658 L 5.52648 -3.27618 L 5.39013 -3.65681 L 5.23901 -4.0274 L 5.07352 -4.38696 L 4.89414 -4.7345 L 4.70133 -5.06905 L 4.49564 -5.38972 L 4.27763 -5.69561 L 4.04789 -5.98589 L 3.80706 -6.25976 L 3.5558 -6.51647 L 3.29479 -6.75533 L 3.02474 -6.97567 L 2.74641 -7.17688 L 2.46055 -7.35843 L 2.16794 -7.51981 L 1.86939 -7.66058 L 1.56572 -7.78034 L 1.25776 -7.87879 L 0.946348 -7.95564 L 0.632343 -8.01068 L 0.316606 -8.04377 L -8.02425e-15 -8.05481 L -0.316606 -8.04377 L -0.632343 -8.01068 L -0.946348 -7.95564 L -1.25776 -7.87879 L -1.56572 -7.78034 L -1.86939 -7.66058 L -2.16794 -7.51981 L -2.46055 -7.35843 L -2.74641 -7.17688 L -3.02474 -6.97567 L -3.29479 -6.75533 L -3.5558 -6.51647 L -3.80706 -6.25976 L -4.04789 -5.98589 L -4.27763 -5.69561 L -4.49564 -5.38972 L -4.70133 -5.06905 L -4.89414 -4.7345 L -5.07352 -4.38696 L -5.23901 -4.0274 L -5.39013 -3.65681 L -5.52648 -3.27618 L -5.64768 -2.88658 L -5.7534 -2.48907 L -5.84335 -2.08474 L -5.91729 -1.67469 L -5.975 -1.26005 L -6.01634 -0.841956 L -6.04119 -0.421556 L -6.04948 3.79974e-15 L -6.04119 0.421556 L -6.01634 0.841956 L -5.975 1.26005 L -5.91729 1.67469 L -5.84335 2.08474 L -5.7534 2.48907 L -5.64768 2.88658 L -5.52648 3.27618 L -5.39013 3.65681 L -5.23901 4.0274 L -5.07352 4.38696 L -4.89414 4.7345 L -4.70133 5.06905 L -4.49564 5.38972 L -4.27763 5.69561 L -4.04789 5.98589 L -3.80706 6.25976 L -3.5558 6.51647 L -3.29479 6.75533 L -3.02474 6.97567 L -2.74641 7.17688 L -2.46055 7.35843 L -2.16794 7.51981 L -1.86939 7.66058 L -1.56572 7.78034 L -1.25776 7.87879 L -0.946348 7.95564 L -0.632343 8.01068 L -0.316606 8.04377 L -1.83062e-14 8.05481 Z" fill="none" stroke="#FF6B6B" stroke-width="1"/>
</svg>
