<?xml version="1.0" encoding="UTF-8"?>
<svg xmlns="http://www.w3.org/2000/svg" width="500" height="300" viewBox="0 0 500 300">
  <rect width="500" height="300" fill="#fafafa"/>
  <text x="15" y="150" text-anchor="middle" font-family="Arial, sans-serif" font-size="12" fill="#666" transform="rotate(-90 15 150)">Variance (%)</text>
  <text x="250" y="290" text-anchor="middle" font-family="Arial, sans-serif" font-size="12" fill="#666">Principal Component</text>
  <line x1="60" y1="40" x2="60" y2="240" stroke="#666" stroke-width="2"/>
  <line x1="60" y1="240" x2="480" y2="240" stroke="#666" stroke-width="2"/>
  <line x1="55" y1="240" x2="60" y2="240" stroke="#666" stroke-width="1"/>
  <text x="50" y="244" text-anchor="end" font-family="Arial, sans-serif" font-size="10" fill="#666">0.0</text>
  <line x1="60" y1="240" x2="480" y2="240" stroke="#e0e0e0" stroke-width="1" stroke-dasharray="2,2"/>
  <line x1="55" y1="200" x2="60" y2="200" stroke="#666" stroke-width="1"/>
  <text x="50" y="204" text-anchor="end" font-family="Arial, sans-serif" font-size="10" fill="#666">8.3</text>
  <line x1="60" y1="200" x2="480" y2="200" stroke="#e0e0e0" stroke-width="1" stroke-dasharray="2,2"/>
  <line x1="55" y1="160" x2="60" y2="160" stroke="#666" stroke-width="1"/>
  <text x="50" y="164" text-anchor="end" font-family="Arial, sans-serif" font-size="10" fill="#666">16.6</text>
  <line x1="60" y1="160" x2="480" y2="160" stroke="#e0e0e0" stroke-width="1" stroke-dasharray="2,2"/>
  <line x1="55" y1="120" x2="60" y2="120" stroke="#666" stroke-width="1"/>
  <text x="50" y="124" text-anchor="end" font-family="Arial, sans-serif" font-size="10" fill="#666">24.9</text>
  <line x1="60" y1="120" x2="480" y2="120" stroke="#e0e0e0" stroke-width="1" stroke-dasharray="2,2"/>
  <line x1="55" y1="80" x2="60" y2="80" stroke="#666" stroke-width="1"/>
  <text x="50" y="84" text-anchor="end" font-family="Arial, sans-serif" font-size="10" fill="#666">33.2</text>
  <line x1="60" y1="80" x2="480" y2="80" stroke="#e0e0e0" stroke-width="1" stroke-dasharray="2,2"/>
  <line x1="55" y1="40" x2="60" y2="40" stroke="#666" stroke-width="1"/>
  <text x="50" y="44" text-anchor="end" font-family="Arial, sans-serif" font-size="10" fill="#666">41.5</text>
  <line x1="60" y1="40" x2="480" y2="40" stroke="#e0e0e0" stroke-width="1" stroke-dasharray="2,2"/>
  <rect x="70" y="40" width="31" height="200" fill="#4ECDC4" stroke="#333" stroke-width="1"/>
  <text x="86" y="260" text-anchor="middle" font-family="Arial, sans-serif" font-size="10" fill="#666">PC1</text>
  <text x="86" y="35" text-anchor="middle" font-family="Arial, sans-serif" font-size="9" fill="#333">41.5%</text>
  <circle cx="86" cy="140" r="4" fill="#FF6B6B" stroke="#fff" stroke-width="2"/>
  <rect x="123" y="141" width="31" height="99" fill="#4ECDC4" stroke="#333" stroke-width="1"/>
  <text x="138" y="260" text-anchor="middle" font-family="Arial, sans-serif" font-size="10" fill="#666">PC2</text>
  <text x="138" y="136" text-anchor="middle" font-family="Arial, sans-serif" font-size="9" fill="#333">20.6%</text>
  <circle cx="138" cy="190" r="4" fill="#FF6B6B" stroke="#fff" stroke-width="2"/>
  <rect x="175" y="168" width="31" height="72" fill="#999" stroke="#333" stroke-width="1"/>
  <text x="191" y="260" text-anchor="middle" font-family="Arial, sans-serif" font-size="10" fill="#666">PC3</text>
  <text x="191" y="163" text-anchor="middle" font-family="Arial, sans-serif" font-size="9" fill="#333">15.0%</text>
  <circle cx="191" cy="204" r="4" fill="#FF6B6B" stroke="#fff" stroke-width="2"/>
  <rect x="228" y="184" width="31" height="56" fill="#999" stroke="#333" stroke-width="1"/>
  <text x="243" y="260" text-anchor="middle" font-family="Arial, sans-serif" font-size="10" fill="#666">PC4</text>
  <text x="243" y="179" text-anchor="middle" font-family="Arial, sans-serif" font-size="9" fill="#333">11.7%</text>
  <circle cx="243" cy="212" r="4" fill="#FF6B6B" stroke="#fff" stroke-width="2"/>
  <rect x="280" y="208" width="31" height="32" fill="#999" stroke="#333" stroke-width="1"/>
  <text x="296" y="260" text-anchor="middle" font-family="Arial, sans-serif" font-size="10" fill="#666">PC5</text>
  <text x="296" y="203" text-anchor="middle" font-family="Arial, sans-serif" font-size="9" fill="#333">6.8%</text>
  <circle cx="296" cy="224" r="4" fill="#FF6B6B" stroke="#fff" stroke-width="2"/>
  <rect x="333" y="225" width="31" height="15" fill="#999" stroke="#333" stroke-width="1"/>
  <text x="348" y="260" text-anchor="middle" font-family="Arial, sans-serif" font-size="10" fill="#666">PC6</text>
  <text x="348" y="220" text-anchor="middle" font-family="Arial, sans-serif" font-size="9" fill="#333">3.2%</text>
  <circle cx="348" cy="232" r="4" fill="#FF6B6B" stroke="#fff" stroke-width="2"/>
  <rect x="385" y="236" width="31" height="4" fill="#999" stroke="#333" stroke-width="1"/>
  <text x="401" y="260" text-anchor="middle" font-family="Arial, sans-serif" font-size="10" fill="#666">PC7</text>
  <text x="401" y="231" text-anchor="middle" font-family="Arial, sans-serif" font-size="9" fill="#333">0.9%</text>
  <circle cx="401" cy="238" r="4" fill="#FF6B6B" stroke="#fff" stroke-width="2"/>
  <rect x="438" y="239" width="31" height="1" fill="#999" stroke="#333" stroke-width="1"/>
  <text x="453" y="260" text-anchor="middle" font-family="Arial, sans-serif" font-size="10" fill="#666">PC8</text>
  <text x="453" y="234" text-anchor="middle" font-family="Arial, sans-serif" font-size="9" fill="#333">0.3%</text>
  <circle cx="453" cy="239" r="4" fill="#FF6B6B" stroke="#fff" stroke-width="2"/>
  <path d="M 86 140 L 138 190 L 191 204 L 243 212 L 296 224 L 348 232 L 401 238 L 453 239" fill="none" stroke="#FF6B6B" stroke-width="2"/>
</svg>
